<?xml version="1.0" standalone="no"?>
<!DOCTYPE svg PUBLIC "-//W3C//DTD SVG 20010904//EN"
 "http://www.w3.org/TR/2001/REC-SVG-20010904/DTD/svg10.dtd">
<svg version="1.0" xmlns="http://www.w3.org/2000/svg"
 width="599.000000pt" height="594.000000pt" viewBox="0 0 599.000000 594.000000"
 preserveAspectRatio="xMidYMid meet">

<g transform="translate(0.000000,594.000000) scale(0.100000,-0.100000)"
fill="#000000" stroke="none">
<path d="M2850 5459 c-883 -45 -1684 -570 -2084 -1366 -108 -215 -173 -403
-219 -633 -75 -373 -59 -805 43 -1164 88 -310 243 -617 438 -862 414 -523 995
-854 1647 -938 158 -21 474 -21 637 0 652 83 1238 416 1649 937 289 366 465
800 519 1282 13 117 13 390 0 513 -88 810 -550 1511 -1264 1919 -302 173 -705
293 -1031 308 -60 3 -130 7 -155 8 -25 2 -106 0 -180 -4z m545 -77 c527 -96
963 -320 1326 -682 678 -676 900 -1681 568 -2578 -280 -758 -924 -1331 -1714
-1526 -209 -51 -301 -61 -585 -61 -276 0 -350 8 -560 57 -597 140 -1138 518
-1476 1033 -364 554 -487 1210 -349 1864 206 977 1025 1747 2015 1895 163 24
161 24 420 21 191 -3 269 -8 355 -23z"/>
<path d="M2895 5013 c-426 -50 -759 -329 -875 -733 -31 -107 -39 -335 -16
-449 43 -213 125 -363 285 -521 144 -142 287 -222 477 -267 120 -28 339 -25
459 6 313 81 570 305 689 604 83 207 89 474 16 687 -126 367 -446 621 -840
670 -82 10 -134 11 -195 3z m197 -50 c-18 -4 -12 -10 37 -34 106 -53 214 -194
181 -234 -17 -20 -50 -19 -112 5 -29 11 -54 20 -56 20 -12 0 47 -60 80 -82 52
-35 97 -36 135 -4 68 59 11 178 -142 294 l-30 23 35 -7 c55 -10 179 -61 253
-105 139 -82 275 -225 352 -366 19 -35 32 -63 30 -63 -3 0 -26 15 -52 34 -131
93 -252 120 -332 75 -134 -75 -105 -272 46 -317 55 -17 133 -26 133 -17 0 4
-21 30 -46 57 -70 75 -91 140 -59 185 57 81 234 -11 323 -167 14 -25 34 -55
45 -67 16 -18 20 -42 25 -134 l5 -113 -50 37 c-180 132 -346 137 -430 14 -17
-26 -34 -64 -38 -86 -19 -112 76 -221 194 -221 22 0 22 2 -14 41 -43 48 -74
112 -75 153 0 61 59 116 124 116 36 -1 101 -36 140 -76 20 -21 53 -70 72 -109
l35 -70 -21 -59 c-34 -100 -158 -303 -179 -292 -53 28 -702 419 -699 421 2 2
23 -1 48 -5 93 -17 180 23 180 84 0 23 -12 41 -50 78 -57 55 -78 62 -55 18 23
-44 20 -96 -7 -114 -49 -35 -125 -10 -200 65 -45 45 -60 68 -73 114 -32 109 6
212 98 269 64 39 182 48 237 18 76 -41 103 -130 55 -177 -31 -32 -68 -32 -130
0 -27 13 -50 23 -52 21 -6 -5 56 -94 83 -120 79 -72 173 8 174 148 1 225 -263
304 -437 130 -159 -159 -107 -385 151 -653 151 -158 202 -233 189 -279 -8 -33
-48 -38 -104 -14 -27 11 -49 18 -49 16 0 -3 7 -19 16 -37 51 -101 143 -134
194 -70 32 41 28 134 -9 198 -16 28 -36 57 -45 64 -9 7 -16 17 -16 22 0 7 97
-47 383 -213 l69 -40 -29 -30 c-42 -45 -180 -133 -259 -167 -89 -38 -175 -60
-280 -72 -77 -8 -88 -7 -149 16 -167 63 -280 142 -353 249 -84 122 -104 115
-100 -35 l3 -97 -58 41 c-72 51 -196 180 -244 254 -49 77 -98 185 -117 259 -9
34 -16 65 -16 69 0 3 21 -12 48 -33 67 -57 143 -99 228 -128 241 -80 430 43
427 281 -2 191 -111 398 -330 625 -133 138 -131 122 -20 206 58 43 60 44 139
44 129 0 198 -32 211 -98 8 -38 -10 -116 -44 -190 l-28 -63 38 22 c103 58 191
168 191 240 0 78 -77 139 -208 163 l-67 12 45 17 c85 32 173 45 305 45 72 -1
120 -3 107 -5z m-692 -470 c41 -43 96 -107 123 -142 205 -274 227 -556 51
-641 -40 -20 -57 -22 -125 -17 -102 7 -209 57 -329 154 l-85 69 -3 90 c-2 49
2 120 9 158 10 61 16 74 55 113 39 39 49 44 82 41 32 -3 37 -7 40 -31 2 -19
-5 -40 -22 -62 -14 -18 -26 -36 -26 -38 0 -5 56 7 83 18 27 11 49 62 42 95
-14 65 -95 85 -170 42 -20 -12 -38 -22 -41 -22 -24 0 94 228 149 287 l20 22
36 -28 c20 -16 70 -65 111 -108z"/>
<path d="M2340 4079 c-21 -22 -42 -49 -45 -60 -9 -28 -21 -24 -45 16 -45 73
-110 78 -150 13 -11 -18 -20 -36 -20 -39 0 -4 19 -4 43 -2 55 6 84 -18 125
-101 l29 -58 31 54 c32 58 83 108 109 108 8 0 30 -15 49 -34 38 -38 41 -32 18
44 -34 113 -75 130 -144 59z"/>
<path d="M2703 2660 c-73 -44 -84 -110 -90 -540 -4 -316 -6 -347 -24 -382 -21
-41 -118 -138 -202 -202 -109 -82 -214 -109 -257 -66 -27 27 -25 32 11 54 104
61 220 211 235 303 5 36 3 45 -19 67 -22 22 -35 26 -82 26 -68 0 -110 -17
-152 -61 -69 -73 -108 -193 -101 -305 5 -76 25 -109 89 -142 67 -35 149 -28
220 20 63 41 199 170 199 186 0 7 6 12 14 12 8 0 28 16 44 35 l31 34 5 -27 c3
-15 13 -85 21 -157 32 -261 42 -312 70 -349 24 -32 48 -49 57 -41 2 2 -14 122
-34 267 -53 373 -53 372 10 549 138 390 160 658 58 720 -39 24 -63 24 -103 -1z
m106 -87 c14 -50 14 -66 -5 -192 -23 -160 -104 -464 -130 -490 -3 -3 -4 122
-2 279 4 214 8 298 20 337 22 75 43 103 78 103 25 0 30 -5 39 -37z m-515 -709
c22 -9 20 -59 -5 -111 -22 -45 -95 -117 -155 -152 l-37 -22 5 44 c8 67 55 162
104 207 43 40 58 45 88 34z"/>
<path d="M1895 2565 c-115 -40 -175 -215 -175 -511 l0 -141 -100 -10 c-80 -8
-104 -14 -115 -29 -8 -10 -15 -23 -15 -27 0 -5 51 -7 114 -6 63 2 117 1 120
-1 4 -4 36 -499 36 -557 0 -19 6 -23 29 -23 16 0 31 6 33 13 4 12 0 95 -22
395 -7 95 -11 175 -8 177 3 3 55 9 117 14 62 5 115 12 118 15 4 3 -4 18 -18
32 -24 26 -26 26 -123 21 l-99 -6 6 157 c9 225 38 337 104 398 21 19 37 24 78
24 48 0 56 -3 85 -36 17 -20 35 -47 40 -60 12 -32 60 -34 60 -4 0 51 -66 126
-140 159 -53 24 -71 25 -125 6z"/>
<path d="M2974 2166 c-37 -37 -37 -66 0 -66 32 0 80 53 71 79 -9 30 -32 26
-71 -13z"/>
<path d="M3282 1944 c-88 -44 -131 -125 -102 -194 15 -36 98 -97 215 -159 117
-62 115 -59 44 -116 -109 -88 -128 -160 -51 -192 31 -13 45 -14 82 -4 59 15
141 72 175 121 31 44 29 72 -7 122 -11 16 -19 30 -17 32 11 8 160 96 163 96 3
0 -5 -19 -16 -42 -12 -24 -23 -72 -26 -108 -4 -54 -1 -69 16 -90 52 -65 179 5
300 165 25 33 48 63 51 67 3 4 4 -36 3 -88 -5 -120 7 -144 71 -144 61 0 141
50 189 119 51 74 48 85 -9 30 -67 -64 -92 -79 -135 -79 -27 0 -40 6 -48 19
-21 40 -5 281 27 409 5 21 2 22 -48 22 -99 0 -205 -66 -301 -186 -47 -58 -62
-69 -164 -118 l-113 -54 -102 44 c-189 84 -272 162 -238 223 26 45 84 66 184
66 79 0 96 -3 143 -28 60 -32 67 -22 17 27 -68 68 -209 87 -303 40z m848 -84
c0 -26 -43 -134 -76 -192 -21 -34 -68 -93 -105 -130 -97 -96 -146 -104 -136
-22 11 97 108 238 215 311 61 41 102 55 102 33z m-540 -420 c0 -17 -62 -81
-97 -99 -12 -6 -35 -11 -52 -11 -26 0 -31 4 -31 23 1 26 39 73 94 117 l39 30
24 -22 c12 -12 23 -29 23 -38z"/>
<path d="M2977 1942 c-15 -16 -15 -36 -1 -247 19 -289 20 -297 62 -309 18 -5
35 -6 39 -3 3 4 -1 48 -10 99 -9 51 -19 143 -22 203 -12 244 -16 275 -35 275
-9 0 -24 -8 -33 -18z"/>
</g>
</svg>
