<?xml version="1.0" encoding="UTF-8"?>
<svg id="Capa_1" xmlns="http://www.w3.org/2000/svg" version="1.1" xmlns:xlink="http://www.w3.org/1999/xlink" viewBox="0 0 500 300">
  <!-- Generator: Adobe Illustrator 29.7.1, SVG Export Plug-In . SVG Version: 2.1.1 Build 8)  -->
  <defs>
    <style>
      .st0 {
        fill: #fafafa;
      }

      .st1 {
        fill: url(#Degradado_sin_nombre_5210);
      }

      .st2 {
        fill: url(#Degradado_sin_nombre_5455);
      }

      .st3 {
        fill: url(#Degradado_sin_nombre_523);
      }

      .st4 {
        fill: url(#Degradado_sin_nombre_527);
      }

      .st5 {
        fill: url(#Degradado_sin_nombre_524);
      }

      .st6 {
        fill: url(#Degradado_sin_nombre_5453);
      }

      .st7 {
        fill: url(#Degradado_sin_nombre_5454);
      }

      .st8 {
        fill: #f7a92b;
      }

      .st9 {
        fill: url(#Degradado_sin_nombre_528);
      }

      .st10 {
        fill: url(#Degradado_sin_nombre_526);
      }

      .st11 {
        fill: #d8dd59;
      }

      .st12 {
        fill: url(#Degradado_sin_nombre_522);
      }

      .st13 {
        fill: url(#Degradado_sin_nombre_5457);
      }

      .st14 {
        fill: url(#Degradado_sin_nombre_5452);
      }

      .st15 {
        fill: url(#Degradado_sin_nombre_5458);
      }

      .st16 {
        fill: url(#Degradado_sin_nombre_545);
      }

      .st17 {
        fill: url(#Degradado_sin_nombre_521);
      }

      .st18 {
        fill: url(#Degradado_sin_nombre_5451);
      }

      .st19 {
        fill: url(#Degradado_sin_nombre_54510);
      }

      .st20 {
        fill: url(#Degradado_sin_nombre_5456);
      }

      .st21 {
        fill: #006183;
      }

      .st22 {
        fill: url(#Degradado_sin_nombre_54511);
      }

      .st23 {
        fill: url(#Degradado_sin_nombre_529);
      }

      .st24 {
        fill: #020303;
      }

      .st25 {
        fill: url(#Degradado_sin_nombre_52);
      }

      .st26 {
        fill: url(#Degradado_sin_nombre_525);
      }

      .st27 {
        fill: url(#Degradado_sin_nombre_5459);
      }

      .st28 {
        fill: url(#Degradado_sin_nombre_5211);
      }
    </style>
    <linearGradient id="Degradado_sin_nombre_545" data-name="Degradado sin nombre 545" x1="334.48" y1="-476.11" x2="370.42" y2="-454.35" gradientUnits="userSpaceOnUse">
      <stop offset=".03" stop-color="#e5b450"/>
      <stop offset=".06" stop-color="#e3ac4c"/>
      <stop offset=".14" stop-color="#e09d45"/>
      <stop offset=".24" stop-color="#de9542"/>
      <stop offset=".4" stop-color="#de9341"/>
      <stop offset=".49" stop-color="#d88f3e"/>
      <stop offset=".61" stop-color="#c88438"/>
      <stop offset=".74" stop-color="#ad722d"/>
      <stop offset=".77" stop-color="#a86f2b"/>
      <stop offset=".93" stop-color="#a67739"/>
    </linearGradient>
    <linearGradient id="Degradado_sin_nombre_5451" data-name="Degradado sin nombre 545" x1="346.72" y1="-471.15" x2="402.81" y2="-443.96" xlink:href="#Degradado_sin_nombre_545"/>
    <linearGradient id="Degradado_sin_nombre_5452" data-name="Degradado sin nombre 545" x1="336.57" y1="-518.59" x2="376.07" y2="-518.59" xlink:href="#Degradado_sin_nombre_545"/>
    <linearGradient id="Degradado_sin_nombre_5453" data-name="Degradado sin nombre 545" x1="355.77" y1="-523.68" x2="369.86" y2="-523.68" xlink:href="#Degradado_sin_nombre_545"/>
    <linearGradient id="Degradado_sin_nombre_5454" data-name="Degradado sin nombre 545" x1="40.74" y1="-539.68" x2="80.37" y2="-511.74" xlink:href="#Degradado_sin_nombre_545"/>
    <linearGradient id="Degradado_sin_nombre_5455" data-name="Degradado sin nombre 545" x1="83.57" y1="-541.22" x2="120.32" y2="-505.23" xlink:href="#Degradado_sin_nombre_545"/>
    <linearGradient id="Degradado_sin_nombre_5456" data-name="Degradado sin nombre 545" x1="112.97" y1="-549.58" x2="341.14" y2="-426.93" xlink:href="#Degradado_sin_nombre_545"/>
    <linearGradient id="Degradado_sin_nombre_5457" data-name="Degradado sin nombre 545" x1="418.08" y1="-471.08" x2="466.36" y2="-434.94" xlink:href="#Degradado_sin_nombre_545"/>
    <linearGradient id="Degradado_sin_nombre_5458" data-name="Degradado sin nombre 545" x1="35.04" y1="-456.81" x2="75.81" y2="-456.81" xlink:href="#Degradado_sin_nombre_545"/>
    <linearGradient id="Degradado_sin_nombre_5459" data-name="Degradado sin nombre 545" x1="76.91" y1="-455.5" x2="137.6" y2="-455.5" xlink:href="#Degradado_sin_nombre_545"/>
    <linearGradient id="Degradado_sin_nombre_54510" data-name="Degradado sin nombre 545" x1="-1.97" y1="-497.14" x2="453.92" y2="-399.68" xlink:href="#Degradado_sin_nombre_545"/>
    <linearGradient id="Degradado_sin_nombre_54511" data-name="Degradado sin nombre 545" x1="242.23" y1="-478.58" x2="352.15" y2="-433.78" xlink:href="#Degradado_sin_nombre_545"/>
    <linearGradient id="Degradado_sin_nombre_52" data-name="Degradado sin nombre 52" x1="1374.48" y1="163.89" x2="1410.42" y2="185.65" gradientUnits="userSpaceOnUse">
      <stop offset=".03" stop-color="#b3b2b2"/>
      <stop offset=".09" stop-color="#a09f9f"/>
      <stop offset=".16" stop-color="#919191"/>
      <stop offset=".25" stop-color="#898989"/>
      <stop offset=".4" stop-color="#878787"/>
      <stop offset=".47" stop-color="#818181"/>
      <stop offset=".57" stop-color="#717171"/>
      <stop offset=".68" stop-color="#575756"/>
      <stop offset=".77" stop-color="#3d3d3b"/>
      <stop offset=".93" stop-color="#727070"/>
    </linearGradient>
    <linearGradient id="Degradado_sin_nombre_521" data-name="Degradado sin nombre 52" x1="1386.72" y1="168.85" x2="1442.81" y2="196.04" xlink:href="#Degradado_sin_nombre_52"/>
    <linearGradient id="Degradado_sin_nombre_522" data-name="Degradado sin nombre 52" x1="1376.57" y1="121.41" x2="1416.07" y2="121.41" xlink:href="#Degradado_sin_nombre_52"/>
    <linearGradient id="Degradado_sin_nombre_523" data-name="Degradado sin nombre 52" x1="1395.77" y1="116.32" x2="1409.86" y2="116.32" xlink:href="#Degradado_sin_nombre_52"/>
    <linearGradient id="Degradado_sin_nombre_524" data-name="Degradado sin nombre 52" x1="1080.74" y1="100.32" x2="1120.37" y2="128.26" xlink:href="#Degradado_sin_nombre_52"/>
    <linearGradient id="Degradado_sin_nombre_525" data-name="Degradado sin nombre 52" x1="1123.57" y1="98.78" x2="1160.32" y2="134.77" xlink:href="#Degradado_sin_nombre_52"/>
    <linearGradient id="Degradado_sin_nombre_526" data-name="Degradado sin nombre 52" x1="1152.97" y1="90.42" x2="1381.14" y2="213.07" xlink:href="#Degradado_sin_nombre_52"/>
    <linearGradient id="Degradado_sin_nombre_527" data-name="Degradado sin nombre 52" x1="1458.08" y1="168.92" x2="1506.36" y2="205.06" xlink:href="#Degradado_sin_nombre_52"/>
    <linearGradient id="Degradado_sin_nombre_528" data-name="Degradado sin nombre 52" x1="1075.04" y1="183.19" x2="1115.81" y2="183.19" xlink:href="#Degradado_sin_nombre_52"/>
    <linearGradient id="Degradado_sin_nombre_529" data-name="Degradado sin nombre 52" x1="1116.91" y1="184.5" x2="1177.6" y2="184.5" xlink:href="#Degradado_sin_nombre_52"/>
    <linearGradient id="Degradado_sin_nombre_5210" data-name="Degradado sin nombre 52" x1="1038.03" y1="142.86" x2="1493.92" y2="240.32" xlink:href="#Degradado_sin_nombre_52"/>
    <linearGradient id="Degradado_sin_nombre_5211" data-name="Degradado sin nombre 52" x1="1282.23" y1="161.42" x2="1392.15" y2="206.22" xlink:href="#Degradado_sin_nombre_52"/>
  </defs>
  <g>
    <g>
      <path class="st16" d="M359.23-435.85c-4.17.64-8.49.25-12.64-1.38-13.22-5.19-19.42-20.94-13.83-35.19,5.39-13.75,19.83-21.07,32.74-16.87-1.47.06-2.96.25-4.42.6-13.82,3.26-22.22,17.97-18.7,32.84,2.23,9.53,8.8,16.83,16.85,19.99Z"/>
      <path class="st18" d="M403.47-465.74c2.91,21.11-10.63,40.41-30.22,43.1-12.26,1.69-23.95-3.5-31.72-12.8,12.73,5.04,27.26,3.15,37.45-6.17,14.58-13.36,14.73-36.9.34-52.61-1.42-1.58-2.98-3.02-4.63-4.31,14.56,3.28,26.48,16.09,28.78,32.79Z"/>
      <g>
        <path class="st14" d="M376.07-511.54c-.51-.5-1-1-1.5-1.48-.08-.07-.23-.08-.35-.09-2.75-.11-5.5-.22-8.26-.31-.2,0-.34-.07-.48-.22-6.73-6.91-13.46-13.82-20.19-20.73-1.09-1.12-2.46-1.78-3.93-2.24-.85-.27-1.72-.43-2.62-.37-.63.04-1.18.22-1.65.69-.47.48-.57,1.05-.51,1.66.11,1.17.6,2.2,1.36,3.06.88,1,1.84,1.94,2.77,2.9,1.45,1.49,2.91,2.98,4.35,4.48.09.09.16.26.15.39-.04,6.52-.08,13.04-.13,19.55,0,.61.19,1.12.62,1.55.81.8,1.6,1.61,2.39,2.42.13.13.25.11.34,0,.1-.13.19-.28.23-.44.87-3.42,1.73-6.84,2.59-10.25.43-1.7.85-3.4,1.28-5.1.03-.1.06-.2.1-.34.14.14.25.25.36.36,1.33,1.36,2.63,2.76,4.12,3.95,2.02,1.61,4.12,3.1,6.43,4.27.76.38,1.53.75,2.39.85.3.03.65,0,.93-.11,3.16-1.22,6.15-2.77,9.12-4.39.02-.01.04-.03.08-.06Z"/>
        <path class="st6" d="M355.77-526.5c.26.26.49.5.72.73,1.57,1.59,3.14,3.17,4.71,4.76.14.14.26.18.46.14,2.56-.58,5.11-1.15,7.67-1.73.1-.02.21-.05.3-.1.24-.13.32-.41.14-.61-.79-.86-1.56-1.74-2.42-2.53-.29-.27-.81-.41-1.23-.42-3.36-.11-6.72-.17-10.09-.25-.07,0-.14,0-.26,0Z"/>
      </g>
    </g>
    <g>
      <path class="st7" d="M35.71-557.1h45.47l-2.24,8.27c-4.84,3.55-9.03,7.16-12.56,10.82-3.53,3.66-6.61,7.48-9.22,11.47-2.61,3.99-4.82,8.21-6.63,12.66-1.81,4.45-3.41,9.27-4.82,14.46h-13.03c1.24-4.97,2.97-9.8,5.2-14.5,2.23-4.7,4.95-9.23,8.15-13.6,2.7-3.71,5.73-7.17,9.08-10.36,3.35-3.2,7.03-6.13,11.03-8.81h-33.26l2.82-10.41Z"/>
      <path class="st2" d="M89.69-498.44c-2.62,0-5.21-.29-7.76-.86-2.55-.57-4.74-1.52-6.57-2.83-1.83-1.31-3.15-3.03-3.97-5.16-.81-2.13-.8-4.75.04-7.87,2.06-7.59,6.99-12.4,14.81-14.42l.02-.08c-2.29-.82-3.89-2.33-4.79-4.55-.9-2.21-.93-4.88-.09-7.99.76-2.79,1.99-5.18,3.7-7.17,1.72-1.99,3.7-3.63,5.96-4.92,2.26-1.28,4.67-2.21,7.23-2.79,2.56-.57,5.07-.86,7.52-.86s4.79.3,7.01.9c2.21.6,4.1,1.53,5.67,2.79,1.57,1.26,2.68,2.88,3.31,4.88s.57,4.38-.18,7.17c-.86,3.17-2.35,5.84-4.47,8.03-2.12,2.19-4.55,3.69-7.28,4.51l-.02.08c3.34.98,5.62,2.69,6.85,5.12,1.23,2.43,1.33,5.53.3,9.3-.84,3.11-2.25,5.74-4.22,7.87-1.97,2.13-4.22,3.85-6.77,5.16-2.54,1.31-5.24,2.25-8.1,2.83-2.86.57-5.6.86-8.22.86ZM92.34-508.19c1.31,0,2.66-.15,4.06-.45,1.39-.3,2.69-.78,3.91-1.43,1.21-.66,2.3-1.53,3.25-2.62.95-1.09,1.64-2.4,2.05-3.93.73-2.68.32-4.78-1.2-6.31-1.52-1.53-4.01-2.29-7.45-2.29s-6.35.76-8.73,2.29c-2.38,1.53-3.94,3.63-4.66,6.31-.41,1.53-.44,2.83-.07,3.89.37,1.07.98,1.94,1.83,2.62.85.68,1.91,1.18,3.17,1.48,1.26.3,2.54.45,3.85.45ZM99.44-534.41c2.68,0,4.94-.6,6.8-1.8,1.86-1.2,3.09-2.95,3.72-5.24.62-2.29.35-4.07-.81-5.33-1.16-1.25-3.11-1.88-5.84-1.88s-5.1.63-6.94,1.88c-1.85,1.26-3.08,3.03-3.7,5.33-.62,2.29-.33,4.04.87,5.24,1.2,1.2,3.17,1.8,5.9,1.8Z"/>
      <path class="st20" d="M131.4-557.1h45.47l-2.24,8.27c-4.84,3.55-9.03,7.16-12.56,10.82-3.53,3.66-6.61,7.48-9.21,11.47-2.61,3.99-4.82,8.21-6.63,12.66-1.81,4.45-3.41,9.27-4.82,14.46h-13.03c1.24-4.97,2.97-9.8,5.2-14.5,2.23-4.7,4.95-9.23,8.15-13.6,2.7-3.71,5.73-7.17,9.08-10.36,3.35-3.2,7.03-6.13,11.03-8.81h-33.26l2.82-10.41Z"/>
    </g>
    <path class="st13" d="M438.08-422.19c-6.55,0-12.45-1.09-17.7-3.28-5.24-2.18-10.32-7.02-13.38-11.57l9.91-7.88c1.84,3.41,4.61,5.93,8.45,7.72,3.84,1.79,8,2.69,12.45,2.69s7.52-.7,9.7-2.1c2.19-1.4,3.28-3.23,3.28-5.51s-1.22-4-3.67-4.92c-2.45-.92-5.73-1.81-9.83-2.69l-6.16-1.44c-3.23-.7-6.14-1.53-8.72-2.49-2.58-.96-4.77-2.16-6.55-3.6-1.79-1.44-3.17-3.17-4.13-5.18-.96-2.01-1.44-4.37-1.44-7.08,0-2.97.63-5.72,1.9-8.26,1.27-2.53,3.1-4.74,5.51-6.62,2.4-1.88,5.39-3.34,8.98-4.39,3.58-1.05,7.73-1.57,12.45-1.57,6.55,0,12.17,1.14,16.84,3.41,4.68,2.27,8.19,5.77,10.56,10.49l-9.79,7.74c-2.04-3.6-3.86-5.38-7.06-6.95-3.19-1.57-6.62-2.36-10.29-2.36-3.93,0-7.06.72-9.37,2.16-2.32,1.44-3.47,3.3-3.47,5.57,0,1.31.39,2.38,1.18,3.21.79.83,1.81,1.55,3.08,2.16,1.27.61,2.73,1.12,4.39,1.51,1.66.39,3.41.77,5.25,1.12l7.21,1.18c2.89.52,5.53,1.24,7.93,2.16,2.4.92,4.48,2.1,6.23,3.54,1.75,1.44,3.1,3.15,4.06,5.11.96,1.97,1.44,4.31,1.44,7.01,0,6.21-2.49,11.27-7.47,15.21-4.98,3.93-12.24,5.9-21.76,5.9Z"/>
    <path class="st15" d="M33.13-423.39v-65.54h13.77l.79,11.8c1.75-4.37,4.37-7.65,7.87-9.83,3.49-2.18,7.56-3.28,12.19-3.28,1.05,0,2.12.04,3.21.13,1.09.09,2.08.35,2.95.79l-1.84,14.81c-.96-.17-1.97-.35-3.01-.52-1.05-.17-2.41-.26-4.06-.26-2.62,0-4.96.48-7.01,1.44-2.05.96-3.76,2.27-5.11,3.93-1.36,1.66-2.4,3.61-3.15,5.83-.74,2.23-1.11,4.57-1.11,7.01v33.69h-15.47Z"/>
    <path class="st27" d="M100.64-422.08c-7.34,0-13.13-2.05-17.37-6.16-4.24-4.11-6.36-9.87-6.36-17.3v-43.39h15.6v39.33c0,5.24,1.16,8.89,3.47,10.95,2.32,2.05,5.66,3.08,10.03,3.08,2.62,0,4.94-.46,6.95-1.38,2.01-.92,3.69-2.21,5.05-3.87,1.35-1.66,2.38-3.58,3.08-5.77.7-2.18,1.05-4.5,1.05-6.95v-35.39h15.47v65.54h-13.63l-.65-10.62c-2.36,4.37-5.53,7.45-9.51,9.24s-8.37,2.69-13.17,2.69Z"/>
    <path class="st19" d="M144.82-423.39v-65.54h13.77l.66,10.62c2.53-4.2,5.53-7.23,8.98-9.11,3.45-1.88,7.62-2.82,12.52-2.82s9,1.03,12.85,3.08c3.84,2.05,6.77,5.31,8.78,9.77,2.01-4.37,5.11-7.6,9.31-9.7,4.2-2.1,8.61-3.15,13.24-3.15,7.43,0,13.26,2.14,17.5,6.42,4.24,4.28,6.36,10.14,6.36,17.57v42.87h-15.47v-39.59c0-4.98-1.2-8.52-3.6-10.62-2.41-2.1-5.44-3.15-9.11-3.15-2.62,0-4.92.48-6.88,1.44-1.97.96-3.65,2.25-5.05,3.87-1.4,1.62-2.45,3.52-3.15,5.7-.7,2.19-1.05,4.5-1.05,6.95v35.39h-15.47v-39.59c0-4.98-1.18-8.52-3.54-10.62-2.36-2.1-5.38-3.15-9.05-3.15-2.62,0-4.94.5-6.95,1.51-2.01,1-3.69,2.36-5.05,4.06-1.36,1.7-2.38,3.67-3.08,5.9-.7,2.23-1.05,4.57-1.05,7.01v34.87h-15.47Z"/>
    <path class="st22" d="M291.93-490.23c4.28,0,8.34.81,12.19,2.42,3.84,1.62,7.23,3.89,10.16,6.82,2.93,2.93,5.26,6.49,7.02,10.68,1.75,4.19,2.62,8.87,2.62,14.03s-.85,9.83-2.56,14.03c-1.7,4.2-4.02,7.76-6.95,10.68-2.93,2.93-6.31,5.2-10.16,6.82-3.85,1.62-7.95,2.42-12.32,2.42-5.07,0-9.51-1.09-13.31-3.28-3.8-2.18-6.79-5.11-8.98-8.78l-.52,10.88h-12.72v-92.29h15.47v34.48c2.27-2.8,5.11-4.98,8.52-6.55,3.41-1.57,7.26-2.36,11.54-2.36ZM290.1-477.38c-2.45,0-4.83.44-7.14,1.31-2.32.88-4.37,2.14-6.16,3.8-1.79,1.66-3.26,3.65-4.39,5.96-1.14,2.32-1.84,4.92-2.1,7.8v4.59c.26,2.88.96,5.46,2.1,7.73,1.13,2.27,2.6,4.24,4.39,5.9,1.79,1.66,3.84,2.93,6.16,3.8,2.31.87,4.7,1.31,7.14,1.31s4.92-.5,7.15-1.51c2.23-1,4.19-2.45,5.9-4.33,1.7-1.88,3.06-4.11,4.06-6.69,1-2.58,1.51-5.44,1.51-8.59s-.51-6.01-1.51-8.59c-1.01-2.58-2.36-4.78-4.06-6.62-1.71-1.84-3.67-3.28-5.9-4.33-2.23-1.05-4.61-1.57-7.15-1.57Z"/>
  </g>
  <g>
    <g>
      <path class="st0" d="M879.23-435.85c-4.17.64-8.49.25-12.64-1.38-13.22-5.19-19.42-20.94-13.83-35.19,5.39-13.75,19.83-21.07,32.74-16.87-1.47.06-2.96.25-4.42.6-13.82,3.26-22.22,17.97-18.7,32.84,2.23,9.53,8.8,16.83,16.85,19.99Z"/>
      <path class="st0" d="M923.47-465.74c2.91,21.11-10.63,40.41-30.22,43.1-12.26,1.69-23.95-3.5-31.72-12.8,12.73,5.04,27.26,3.15,37.45-6.17,14.58-13.36,14.73-36.9.34-52.61-1.42-1.58-2.98-3.02-4.63-4.31,14.56,3.28,26.48,16.09,28.78,32.79Z"/>
      <g>
        <path class="st0" d="M896.07-511.54c-.51-.5-1-1-1.5-1.48-.08-.07-.23-.08-.35-.09-2.75-.11-5.5-.22-8.26-.31-.2,0-.34-.07-.48-.22-6.73-6.91-13.46-13.82-20.19-20.73-1.09-1.12-2.46-1.78-3.93-2.24-.85-.27-1.72-.43-2.62-.37-.63.04-1.18.22-1.65.69-.47.48-.57,1.05-.51,1.66.11,1.17.6,2.2,1.36,3.06.88,1,1.84,1.94,2.77,2.9,1.45,1.49,2.91,2.98,4.35,4.48.09.09.16.26.15.39-.04,6.52-.08,13.04-.13,19.55,0,.61.19,1.12.62,1.55.81.8,1.6,1.61,2.39,2.42.13.13.25.11.34,0,.1-.13.19-.28.23-.44.87-3.42,1.73-6.84,2.59-10.25.43-1.7.85-3.4,1.28-5.1.03-.1.06-.2.1-.34.14.14.25.25.36.36,1.33,1.36,2.63,2.76,4.12,3.95,2.02,1.61,4.12,3.1,6.43,4.27.76.38,1.53.75,2.39.85.3.03.65,0,.93-.11,3.16-1.22,6.15-2.77,9.12-4.39.02-.01.04-.03.08-.06Z"/>
        <path class="st0" d="M875.77-526.5c.26.26.49.5.72.73,1.57,1.59,3.14,3.17,4.71,4.76.14.14.26.18.46.14,2.56-.58,5.11-1.15,7.67-1.73.1-.02.21-.05.3-.1.24-.13.32-.41.14-.61-.79-.86-1.56-1.74-2.42-2.53-.29-.27-.81-.41-1.23-.42-3.36-.11-6.72-.17-10.09-.25-.07,0-.14,0-.26,0Z"/>
      </g>
    </g>
    <g>
      <path class="st0" d="M555.71-557.1h45.47l-2.24,8.27c-4.84,3.55-9.03,7.16-12.56,10.82-3.53,3.66-6.61,7.48-9.22,11.47-2.61,3.99-4.82,8.21-6.63,12.66-1.81,4.45-3.41,9.27-4.82,14.46h-13.03c1.24-4.97,2.97-9.8,5.2-14.5,2.23-4.7,4.95-9.23,8.15-13.6,2.7-3.71,5.73-7.17,9.08-10.36,3.35-3.2,7.03-6.13,11.03-8.81h-33.26l2.82-10.41Z"/>
      <path class="st0" d="M609.69-498.44c-2.62,0-5.21-.29-7.76-.86-2.55-.57-4.74-1.52-6.57-2.83-1.83-1.31-3.15-3.03-3.97-5.16-.81-2.13-.8-4.75.04-7.87,2.06-7.59,6.99-12.4,14.81-14.42l.02-.08c-2.29-.82-3.89-2.33-4.79-4.55-.9-2.21-.93-4.88-.09-7.99.76-2.79,1.99-5.18,3.7-7.17,1.72-1.99,3.7-3.63,5.96-4.92,2.26-1.28,4.67-2.21,7.23-2.79,2.56-.57,5.07-.86,7.52-.86s4.79.3,7.01.9c2.21.6,4.1,1.53,5.67,2.79,1.57,1.26,2.68,2.88,3.31,4.88s.57,4.38-.18,7.17c-.86,3.17-2.35,5.84-4.47,8.03-2.12,2.19-4.55,3.69-7.28,4.51l-.02.08c3.34.98,5.62,2.69,6.85,5.12,1.23,2.43,1.33,5.53.3,9.3-.84,3.11-2.25,5.74-4.22,7.87-1.97,2.13-4.22,3.85-6.77,5.16-2.54,1.31-5.24,2.25-8.1,2.83-2.86.57-5.6.86-8.22.86ZM612.34-508.19c1.31,0,2.66-.15,4.06-.45,1.39-.3,2.69-.78,3.91-1.43,1.21-.66,2.3-1.53,3.25-2.62.95-1.09,1.64-2.4,2.05-3.93.73-2.68.32-4.78-1.2-6.31-1.52-1.53-4.01-2.29-7.45-2.29s-6.35.76-8.73,2.29c-2.38,1.53-3.94,3.63-4.66,6.31-.41,1.53-.44,2.83-.07,3.89.37,1.07.98,1.94,1.83,2.62.85.68,1.91,1.18,3.17,1.48,1.26.3,2.54.45,3.85.45ZM619.44-534.41c2.68,0,4.94-.6,6.8-1.8,1.86-1.2,3.09-2.95,3.72-5.24.62-2.29.35-4.07-.81-5.33-1.16-1.25-3.11-1.88-5.84-1.88s-5.1.63-6.94,1.88c-1.85,1.26-3.08,3.03-3.7,5.33-.62,2.29-.33,4.04.87,5.24,1.2,1.2,3.17,1.8,5.9,1.8Z"/>
      <path class="st0" d="M651.4-557.1h45.47l-2.24,8.27c-4.84,3.55-9.03,7.16-12.56,10.82-3.53,3.66-6.61,7.48-9.21,11.47-2.61,3.99-4.82,8.21-6.63,12.66-1.81,4.45-3.41,9.27-4.82,14.46h-13.03c1.24-4.97,2.97-9.8,5.2-14.5,2.23-4.7,4.95-9.23,8.15-13.6,2.7-3.71,5.73-7.17,9.08-10.36,3.35-3.2,7.03-6.13,11.03-8.81h-33.26l2.82-10.41Z"/>
    </g>
    <path class="st0" d="M958.08-422.19c-6.55,0-12.45-1.09-17.7-3.28-5.24-2.18-10.32-7.02-13.38-11.57l9.91-7.88c1.84,3.41,4.61,5.93,8.45,7.72,3.84,1.79,8,2.69,12.45,2.69s7.52-.7,9.7-2.1c2.19-1.4,3.28-3.23,3.28-5.51s-1.22-4-3.67-4.92c-2.45-.92-5.73-1.81-9.83-2.69l-6.16-1.44c-3.23-.7-6.14-1.53-8.72-2.49-2.58-.96-4.77-2.16-6.55-3.6-1.79-1.44-3.17-3.17-4.13-5.18-.96-2.01-1.44-4.37-1.44-7.08,0-2.97.63-5.72,1.9-8.26,1.27-2.53,3.1-4.74,5.51-6.62,2.4-1.88,5.39-3.34,8.98-4.39,3.58-1.05,7.73-1.57,12.45-1.57,6.55,0,12.17,1.14,16.84,3.41,4.68,2.27,8.19,5.77,10.56,10.49l-9.79,7.74c-2.04-3.6-3.86-5.38-7.06-6.95-3.19-1.57-6.62-2.36-10.29-2.36-3.93,0-7.06.72-9.37,2.16-2.32,1.44-3.47,3.3-3.47,5.57,0,1.31.39,2.38,1.18,3.21.79.83,1.81,1.55,3.08,2.16,1.27.61,2.73,1.12,4.39,1.51,1.66.39,3.41.77,5.25,1.12l7.21,1.18c2.89.52,5.53,1.24,7.93,2.16,2.4.92,4.48,2.1,6.23,3.54,1.75,1.44,3.1,3.15,4.06,5.11.96,1.97,1.44,4.31,1.44,7.01,0,6.21-2.49,11.27-7.47,15.21-4.98,3.93-12.24,5.9-21.76,5.9Z"/>
    <path class="st0" d="M553.13-423.39v-65.54h13.77l.79,11.8c1.75-4.37,4.37-7.65,7.87-9.83,3.49-2.18,7.56-3.28,12.19-3.28,1.05,0,2.12.04,3.21.13,1.09.09,2.08.35,2.95.79l-1.84,14.81c-.96-.17-1.97-.35-3.01-.52-1.05-.17-2.41-.26-4.06-.26-2.62,0-4.96.48-7.01,1.44-2.05.96-3.76,2.27-5.11,3.93-1.36,1.66-2.4,3.61-3.15,5.83-.74,2.23-1.11,4.57-1.11,7.01v33.69h-15.47Z"/>
    <path class="st0" d="M620.64-422.08c-7.34,0-13.13-2.05-17.37-6.16-4.24-4.11-6.36-9.87-6.36-17.3v-43.39h15.6v39.33c0,5.24,1.16,8.89,3.47,10.95,2.32,2.05,5.66,3.08,10.03,3.08,2.62,0,4.94-.46,6.95-1.38,2.01-.92,3.69-2.21,5.05-3.87,1.35-1.66,2.38-3.58,3.08-5.77.7-2.18,1.05-4.5,1.05-6.95v-35.39h15.47v65.54h-13.63l-.65-10.62c-2.36,4.37-5.53,7.45-9.51,9.24s-8.37,2.69-13.17,2.69Z"/>
    <path class="st0" d="M664.82-423.39v-65.54h13.77l.66,10.62c2.53-4.2,5.53-7.23,8.98-9.11,3.45-1.88,7.62-2.82,12.52-2.82s9,1.03,12.85,3.08c3.84,2.05,6.77,5.31,8.78,9.77,2.01-4.37,5.11-7.6,9.31-9.7,4.2-2.1,8.61-3.15,13.24-3.15,7.43,0,13.26,2.14,17.5,6.42,4.24,4.28,6.36,10.14,6.36,17.57v42.87h-15.47v-39.59c0-4.98-1.2-8.52-3.6-10.62-2.41-2.1-5.44-3.15-9.11-3.15-2.62,0-4.92.48-6.88,1.44-1.97.96-3.65,2.25-5.05,3.87-1.4,1.62-2.45,3.52-3.15,5.7-.7,2.19-1.05,4.5-1.05,6.95v35.39h-15.47v-39.59c0-4.98-1.18-8.52-3.54-10.62-2.36-2.1-5.38-3.15-9.05-3.15-2.62,0-4.94.5-6.95,1.51-2.01,1-3.69,2.36-5.05,4.06-1.36,1.7-2.38,3.67-3.08,5.9-.7,2.23-1.05,4.57-1.05,7.01v34.87h-15.47Z"/>
    <path class="st0" d="M811.93-490.23c4.28,0,8.34.81,12.19,2.42,3.84,1.62,7.23,3.89,10.16,6.82,2.93,2.93,5.26,6.49,7.02,10.68,1.75,4.19,2.62,8.87,2.62,14.03s-.85,9.83-2.56,14.03c-1.7,4.2-4.02,7.76-6.95,10.68-2.93,2.93-6.31,5.2-10.16,6.82-3.85,1.62-7.95,2.42-12.32,2.42-5.07,0-9.51-1.09-13.31-3.28-3.8-2.18-6.79-5.11-8.98-8.78l-.52,10.88h-12.72v-92.29h15.47v34.48c2.27-2.8,5.11-4.98,8.52-6.55,3.41-1.57,7.26-2.36,11.54-2.36ZM810.1-477.38c-2.45,0-4.83.44-7.14,1.31-2.32.88-4.37,2.14-6.16,3.8-1.79,1.66-3.26,3.65-4.39,5.96-1.14,2.32-1.84,4.92-2.1,7.8v4.59c.26,2.88.96,5.46,2.1,7.73,1.13,2.27,2.6,4.24,4.39,5.9,1.79,1.66,3.84,2.93,6.16,3.8,2.31.87,4.7,1.31,7.14,1.31s4.92-.5,7.15-1.51c2.23-1,4.19-2.45,5.9-4.33,1.7-1.88,3.06-4.11,4.06-6.69,1-2.58,1.51-5.44,1.51-8.59s-.51-6.01-1.51-8.59c-1.01-2.58-2.36-4.78-4.06-6.62-1.71-1.84-3.67-3.28-5.9-4.33-2.23-1.05-4.61-1.57-7.15-1.57Z"/>
  </g>
  <g>
    <g>
      <path class="st8" d="M1399.23-435.85c-4.17.64-8.49.25-12.64-1.38-13.22-5.19-19.42-20.94-13.83-35.19,5.39-13.75,19.83-21.07,32.74-16.87-1.47.06-2.96.25-4.42.6-13.82,3.26-22.22,17.97-18.7,32.84,2.23,9.53,8.8,16.83,16.85,19.99Z"/>
      <path class="st8" d="M1443.47-465.74c2.91,21.11-10.63,40.41-30.22,43.1-12.26,1.69-23.95-3.5-31.72-12.8,12.73,5.04,27.26,3.15,37.45-6.17,14.58-13.36,14.73-36.9.34-52.61-1.42-1.58-2.98-3.02-4.63-4.31,14.56,3.28,26.48,16.09,28.78,32.79Z"/>
      <g>
        <path class="st8" d="M1416.07-511.54c-.51-.5-1-1-1.5-1.48-.08-.07-.23-.08-.35-.09-2.75-.11-5.5-.22-8.26-.31-.2,0-.34-.07-.48-.22-6.73-6.91-13.46-13.82-20.19-20.73-1.09-1.12-2.46-1.78-3.93-2.24-.85-.27-1.72-.43-2.62-.37-.63.04-1.18.22-1.65.69-.47.48-.57,1.05-.51,1.66.11,1.17.6,2.2,1.36,3.06.88,1,1.84,1.94,2.77,2.9,1.45,1.49,2.91,2.98,4.35,4.48.09.09.16.26.15.39-.04,6.52-.08,13.04-.13,19.55,0,.61.19,1.12.62,1.55.81.8,1.6,1.61,2.39,2.42.13.13.25.11.34,0,.1-.13.19-.28.23-.44.87-3.42,1.73-6.84,2.59-10.25.43-1.7.85-3.4,1.28-5.1.03-.1.06-.2.1-.34.14.14.25.25.36.36,1.33,1.36,2.63,2.76,4.12,3.95,2.02,1.61,4.12,3.1,6.43,4.27.76.38,1.53.75,2.39.85.3.03.65,0,.93-.11,3.16-1.22,6.15-2.77,9.12-4.39.02-.01.04-.03.08-.06Z"/>
        <path class="st8" d="M1395.77-526.5c.26.26.49.5.72.73,1.57,1.59,3.14,3.17,4.71,4.76.14.14.26.18.46.14,2.56-.58,5.11-1.15,7.67-1.73.1-.02.21-.05.3-.1.24-.13.32-.41.14-.61-.79-.86-1.56-1.74-2.42-2.53-.29-.27-.81-.41-1.23-.42-3.36-.11-6.72-.17-10.09-.25-.07,0-.14,0-.26,0Z"/>
      </g>
    </g>
    <g>
      <path class="st8" d="M1075.71-557.1h45.47l-2.24,8.27c-4.84,3.55-9.03,7.16-12.56,10.82-3.53,3.66-6.61,7.48-9.22,11.47-2.61,3.99-4.82,8.21-6.63,12.66-1.81,4.45-3.41,9.27-4.82,14.46h-13.03c1.24-4.97,2.97-9.8,5.2-14.5,2.23-4.7,4.95-9.23,8.15-13.6,2.7-3.71,5.73-7.17,9.08-10.36,3.35-3.2,7.03-6.13,11.03-8.81h-33.26l2.82-10.41Z"/>
      <path class="st8" d="M1129.69-498.44c-2.62,0-5.21-.29-7.76-.86-2.55-.57-4.74-1.52-6.57-2.83-1.83-1.31-3.15-3.03-3.97-5.16-.81-2.13-.8-4.75.04-7.87,2.06-7.59,6.99-12.4,14.81-14.42l.02-.08c-2.29-.82-3.89-2.33-4.79-4.55-.9-2.21-.93-4.88-.09-7.99.76-2.79,1.99-5.18,3.7-7.17,1.72-1.99,3.7-3.63,5.96-4.92,2.26-1.28,4.67-2.21,7.23-2.79,2.56-.57,5.07-.86,7.52-.86s4.79.3,7.01.9c2.21.6,4.1,1.53,5.67,2.79,1.57,1.26,2.68,2.88,3.31,4.88s.57,4.38-.18,7.17c-.86,3.17-2.35,5.84-4.47,8.03-2.12,2.19-4.55,3.69-7.28,4.51l-.02.08c3.34.98,5.62,2.69,6.85,5.12,1.23,2.43,1.33,5.53.3,9.3-.84,3.11-2.25,5.74-4.22,7.87-1.97,2.13-4.22,3.85-6.77,5.16-2.54,1.31-5.24,2.25-8.1,2.83-2.86.57-5.6.86-8.22.86ZM1132.34-508.19c1.31,0,2.66-.15,4.06-.45,1.39-.3,2.69-.78,3.91-1.43,1.21-.66,2.3-1.53,3.25-2.62.95-1.09,1.64-2.4,2.05-3.93.73-2.68.32-4.78-1.2-6.31-1.52-1.53-4.01-2.29-7.45-2.29s-6.35.76-8.73,2.29c-2.38,1.53-3.94,3.63-4.66,6.31-.41,1.53-.44,2.83-.07,3.89.37,1.07.98,1.94,1.83,2.62.85.68,1.91,1.18,3.17,1.48,1.26.3,2.54.45,3.85.45ZM1139.44-534.41c2.68,0,4.94-.6,6.8-1.8,1.86-1.2,3.09-2.95,3.72-5.24.62-2.29.35-4.07-.81-5.33-1.16-1.25-3.11-1.88-5.84-1.88s-5.1.63-6.94,1.88c-1.85,1.26-3.08,3.03-3.7,5.33-.62,2.29-.33,4.04.87,5.24,1.2,1.2,3.17,1.8,5.9,1.8Z"/>
      <path class="st8" d="M1171.4-557.1h45.47l-2.24,8.27c-4.84,3.55-9.03,7.16-12.56,10.82-3.53,3.66-6.61,7.48-9.21,11.47-2.61,3.99-4.82,8.21-6.63,12.66-1.81,4.45-3.41,9.27-4.82,14.46h-13.03c1.24-4.97,2.97-9.8,5.2-14.5,2.23-4.7,4.95-9.23,8.15-13.6,2.7-3.71,5.73-7.17,9.08-10.36,3.35-3.2,7.03-6.13,11.03-8.81h-33.26l2.82-10.41Z"/>
    </g>
    <path class="st8" d="M1478.08-422.19c-6.55,0-12.45-1.09-17.7-3.28-5.24-2.18-10.32-7.02-13.38-11.57l9.91-7.88c1.84,3.41,4.61,5.93,8.45,7.72,3.84,1.79,8,2.69,12.45,2.69s7.52-.7,9.7-2.1c2.19-1.4,3.28-3.23,3.28-5.51s-1.22-4-3.67-4.92c-2.45-.92-5.73-1.81-9.83-2.69l-6.16-1.44c-3.23-.7-6.14-1.53-8.72-2.49-2.58-.96-4.77-2.16-6.55-3.6-1.79-1.44-3.17-3.17-4.13-5.18-.96-2.01-1.44-4.37-1.44-7.08,0-2.97.63-5.72,1.9-8.26,1.27-2.53,3.1-4.74,5.51-6.62,2.4-1.88,5.39-3.34,8.98-4.39,3.58-1.05,7.73-1.57,12.45-1.57,6.55,0,12.17,1.14,16.84,3.41,4.68,2.27,8.19,5.77,10.56,10.49l-9.79,7.74c-2.04-3.6-3.86-5.38-7.06-6.95-3.19-1.57-6.62-2.36-10.29-2.36-3.93,0-7.06.72-9.37,2.16-2.32,1.44-3.47,3.3-3.47,5.57,0,1.31.39,2.38,1.18,3.21.79.83,1.81,1.55,3.08,2.16,1.27.61,2.73,1.12,4.39,1.51,1.66.39,3.41.77,5.25,1.12l7.21,1.18c2.89.52,5.53,1.24,7.93,2.16,2.4.92,4.48,2.1,6.23,3.54,1.75,1.44,3.1,3.15,4.06,5.11.96,1.97,1.44,4.31,1.44,7.01,0,6.21-2.49,11.27-7.47,15.21-4.98,3.93-12.24,5.9-21.76,5.9Z"/>
    <path class="st8" d="M1073.13-423.39v-65.54h13.77l.79,11.8c1.75-4.37,4.37-7.65,7.87-9.83,3.49-2.18,7.56-3.28,12.19-3.28,1.05,0,2.12.04,3.21.13,1.09.09,2.08.35,2.95.79l-1.84,14.81c-.96-.17-1.97-.35-3.01-.52-1.05-.17-2.41-.26-4.06-.26-2.62,0-4.96.48-7.01,1.44-2.05.96-3.76,2.27-5.11,3.93-1.36,1.66-2.4,3.61-3.15,5.83-.74,2.23-1.11,4.57-1.11,7.01v33.69h-15.47Z"/>
    <path class="st8" d="M1140.64-422.08c-7.34,0-13.13-2.05-17.37-6.16-4.24-4.11-6.36-9.87-6.36-17.3v-43.39h15.6v39.33c0,5.24,1.16,8.89,3.47,10.95,2.32,2.05,5.66,3.08,10.03,3.08,2.62,0,4.94-.46,6.95-1.38,2.01-.92,3.69-2.21,5.05-3.87,1.35-1.66,2.38-3.58,3.08-5.77.7-2.18,1.05-4.5,1.05-6.95v-35.39h15.47v65.54h-13.63l-.65-10.62c-2.36,4.37-5.53,7.45-9.51,9.24s-8.37,2.69-13.17,2.69Z"/>
    <path class="st8" d="M1184.82-423.39v-65.54h13.77l.66,10.62c2.53-4.2,5.53-7.23,8.98-9.11,3.45-1.88,7.62-2.82,12.52-2.82s9,1.03,12.85,3.08c3.84,2.05,6.77,5.31,8.78,9.77,2.01-4.37,5.11-7.6,9.31-9.7,4.2-2.1,8.61-3.15,13.24-3.15,7.43,0,13.26,2.14,17.5,6.42,4.24,4.28,6.36,10.14,6.36,17.57v42.87h-15.47v-39.59c0-4.98-1.2-8.52-3.6-10.62-2.41-2.1-5.44-3.15-9.11-3.15-2.62,0-4.92.48-6.88,1.44-1.97.96-3.65,2.25-5.05,3.87-1.4,1.62-2.45,3.52-3.15,5.7-.7,2.19-1.05,4.5-1.05,6.95v35.39h-15.47v-39.59c0-4.98-1.18-8.52-3.54-10.62-2.36-2.1-5.38-3.15-9.05-3.15-2.62,0-4.94.5-6.95,1.51-2.01,1-3.69,2.36-5.05,4.06-1.36,1.7-2.38,3.67-3.08,5.9-.7,2.23-1.05,4.57-1.05,7.01v34.87h-15.47Z"/>
    <path class="st8" d="M1331.93-490.23c4.28,0,8.34.81,12.19,2.42,3.84,1.62,7.23,3.89,10.16,6.82,2.93,2.93,5.26,6.49,7.02,10.68,1.75,4.19,2.62,8.87,2.62,14.03s-.85,9.83-2.56,14.03c-1.7,4.2-4.02,7.76-6.95,10.68-2.93,2.93-6.31,5.2-10.16,6.82-3.85,1.62-7.95,2.42-12.32,2.42-5.07,0-9.51-1.09-13.31-3.28-3.8-2.18-6.79-5.11-8.98-8.78l-.52,10.88h-12.72v-92.29h15.47v34.48c2.27-2.8,5.11-4.98,8.52-6.55,3.41-1.57,7.26-2.36,11.54-2.36ZM1330.1-477.38c-2.45,0-4.83.44-7.14,1.31-2.32.88-4.37,2.14-6.16,3.8-1.79,1.66-3.26,3.65-4.39,5.96-1.14,2.32-1.84,4.92-2.1,7.8v4.59c.26,2.88.96,5.46,2.1,7.73,1.13,2.27,2.6,4.24,4.39,5.9,1.79,1.66,3.84,2.93,6.16,3.8,2.31.87,4.7,1.31,7.14,1.31s4.92-.5,7.15-1.51c2.23-1,4.19-2.45,5.9-4.33,1.7-1.88,3.06-4.11,4.06-6.69,1-2.58,1.51-5.44,1.51-8.59s-.51-6.01-1.51-8.59c-1.01-2.58-2.36-4.78-4.06-6.62-1.71-1.84-3.67-3.28-5.9-4.33-2.23-1.05-4.61-1.57-7.15-1.57Z"/>
  </g>
  <g>
    <g>
      <path class="st11" d="M879.23-115.85c-4.17.64-8.49.25-12.64-1.38-13.22-5.19-19.42-20.94-13.83-35.19,5.39-13.75,19.83-21.07,32.74-16.87-1.47.06-2.96.25-4.42.6-13.82,3.26-22.22,17.97-18.7,32.84,2.23,9.53,8.8,16.83,16.85,19.99Z"/>
      <path class="st11" d="M923.47-145.74c2.91,21.11-10.63,40.41-30.22,43.1-12.26,1.69-23.95-3.5-31.72-12.8,12.73,5.04,27.26,3.15,37.45-6.17,14.58-13.36,14.73-36.9.34-52.61-1.42-1.58-2.98-3.02-4.63-4.31,14.56,3.28,26.48,16.09,28.78,32.79Z"/>
      <g>
        <path class="st11" d="M896.07-191.54c-.51-.5-1-1-1.5-1.48-.08-.07-.23-.08-.35-.09-2.75-.11-5.5-.22-8.26-.31-.2,0-.34-.07-.48-.22-6.73-6.91-13.46-13.82-20.19-20.73-1.09-1.12-2.46-1.78-3.93-2.24-.85-.27-1.72-.43-2.62-.37-.63.04-1.18.22-1.65.69-.47.48-.57,1.05-.51,1.66.11,1.17.6,2.2,1.36,3.06.88,1,1.84,1.94,2.77,2.9,1.45,1.49,2.91,2.98,4.35,4.48.09.09.16.26.15.39-.04,6.52-.08,13.04-.13,19.55,0,.61.19,1.12.62,1.55.81.8,1.6,1.61,2.39,2.42.13.13.25.11.34,0,.1-.13.19-.28.23-.44.87-3.42,1.73-6.84,2.59-10.25.43-1.7.85-3.4,1.28-5.1.03-.1.06-.2.1-.34.14.14.25.25.36.36,1.33,1.36,2.63,2.76,4.12,3.95,2.02,1.61,4.12,3.1,6.43,4.27.76.38,1.53.75,2.39.85.3.03.65,0,.93-.11,3.16-1.22,6.15-2.77,9.12-4.39.02-.01.04-.03.08-.06Z"/>
        <path class="st11" d="M875.77-206.5c.26.26.49.5.72.73,1.57,1.59,3.14,3.17,4.71,4.76.14.14.26.18.46.14,2.56-.58,5.11-1.15,7.67-1.73.1-.02.21-.05.3-.1.24-.13.32-.41.14-.61-.79-.86-1.56-1.74-2.42-2.53-.29-.27-.81-.41-1.23-.42-3.36-.11-6.72-.17-10.09-.25-.07,0-.14,0-.26,0Z"/>
      </g>
    </g>
    <g>
      <path class="st11" d="M555.71-237.1h45.47l-2.24,8.27c-4.84,3.55-9.03,7.16-12.56,10.82-3.53,3.66-6.61,7.48-9.22,11.47-2.61,3.99-4.82,8.21-6.63,12.66-1.81,4.45-3.41,9.27-4.82,14.46h-13.03c1.24-4.97,2.97-9.8,5.2-14.5,2.23-4.7,4.95-9.23,8.15-13.6,2.7-3.71,5.73-7.17,9.08-10.36,3.35-3.2,7.03-6.13,11.03-8.81h-33.26l2.82-10.41Z"/>
      <path class="st11" d="M609.69-178.44c-2.62,0-5.21-.29-7.76-.86-2.55-.57-4.74-1.52-6.57-2.83-1.83-1.31-3.15-3.03-3.97-5.16-.81-2.13-.8-4.75.04-7.87,2.06-7.59,6.99-12.4,14.81-14.42l.02-.08c-2.29-.82-3.89-2.33-4.79-4.55-.9-2.21-.93-4.88-.09-7.99.76-2.79,1.99-5.18,3.7-7.17,1.72-1.99,3.7-3.63,5.96-4.92,2.26-1.28,4.67-2.21,7.23-2.79,2.56-.57,5.07-.86,7.52-.86s4.79.3,7.01.9c2.21.6,4.1,1.53,5.67,2.79,1.57,1.26,2.68,2.88,3.31,4.88s.57,4.38-.18,7.17c-.86,3.17-2.35,5.84-4.47,8.03-2.12,2.19-4.55,3.69-7.28,4.51l-.02.08c3.34.98,5.62,2.69,6.85,5.12,1.23,2.43,1.33,5.53.3,9.3-.84,3.11-2.25,5.74-4.22,7.87-1.97,2.13-4.22,3.85-6.77,5.16-2.54,1.31-5.24,2.25-8.1,2.83-2.86.57-5.6.86-8.22.86ZM612.34-188.19c1.31,0,2.66-.15,4.06-.45,1.39-.3,2.69-.78,3.91-1.43,1.21-.66,2.3-1.53,3.25-2.62.95-1.09,1.64-2.4,2.05-3.93.73-2.68.32-4.78-1.2-6.31-1.52-1.53-4.01-2.29-7.45-2.29s-6.35.76-8.73,2.29c-2.38,1.53-3.94,3.63-4.66,6.31-.41,1.53-.44,2.83-.07,3.89.37,1.07.98,1.94,1.83,2.62.85.68,1.91,1.18,3.17,1.48,1.26.3,2.54.45,3.85.45ZM619.44-214.41c2.68,0,4.94-.6,6.8-1.8,1.86-1.2,3.09-2.95,3.72-5.24s.35-4.07-.81-5.33c-1.16-1.25-3.11-1.88-5.84-1.88s-5.1.63-6.94,1.88c-1.85,1.26-3.08,3.03-3.7,5.33-.62,2.29-.33,4.04.87,5.24,1.2,1.2,3.17,1.8,5.9,1.8Z"/>
      <path class="st11" d="M651.4-237.1h45.47l-2.24,8.27c-4.84,3.55-9.03,7.16-12.56,10.82-3.53,3.66-6.61,7.48-9.21,11.47-2.61,3.99-4.82,8.21-6.63,12.66-1.81,4.45-3.41,9.27-4.82,14.46h-13.03c1.24-4.97,2.97-9.8,5.2-14.5,2.23-4.7,4.95-9.23,8.15-13.6,2.7-3.71,5.73-7.17,9.08-10.36,3.35-3.2,7.03-6.13,11.03-8.81h-33.26l2.82-10.41Z"/>
    </g>
    <path class="st11" d="M958.08-102.19c-6.55,0-12.45-1.09-17.7-3.28-5.24-2.18-10.32-7.02-13.38-11.57l9.91-7.88c1.84,3.41,4.61,5.93,8.45,7.72,3.84,1.79,8,2.69,12.45,2.69s7.52-.7,9.7-2.1c2.19-1.4,3.28-3.23,3.28-5.51s-1.22-4-3.67-4.92c-2.45-.92-5.73-1.81-9.83-2.69l-6.16-1.44c-3.23-.7-6.14-1.53-8.72-2.49-2.58-.96-4.77-2.16-6.55-3.6-1.79-1.44-3.17-3.17-4.13-5.18-.96-2.01-1.44-4.37-1.44-7.08,0-2.97.63-5.72,1.9-8.26,1.27-2.53,3.1-4.74,5.51-6.62,2.4-1.88,5.39-3.34,8.98-4.39,3.58-1.05,7.73-1.57,12.45-1.57,6.55,0,12.17,1.14,16.84,3.41,4.68,2.27,8.19,5.77,10.56,10.49l-9.79,7.74c-2.04-3.6-3.86-5.38-7.06-6.95-3.19-1.57-6.62-2.36-10.29-2.36-3.93,0-7.06.72-9.37,2.16-2.32,1.44-3.47,3.3-3.47,5.57,0,1.31.39,2.38,1.18,3.21.79.83,1.81,1.55,3.08,2.16,1.27.61,2.73,1.12,4.39,1.51,1.66.39,3.41.77,5.25,1.12l7.21,1.18c2.89.52,5.53,1.24,7.93,2.16,2.4.92,4.48,2.1,6.23,3.54,1.75,1.44,3.1,3.15,4.06,5.11.96,1.97,1.44,4.31,1.44,7.01,0,6.21-2.49,11.27-7.47,15.21-4.98,3.93-12.24,5.9-21.76,5.9Z"/>
    <path class="st11" d="M553.13-103.39v-65.54h13.77l.79,11.8c1.75-4.37,4.37-7.65,7.87-9.83,3.49-2.18,7.56-3.28,12.19-3.28,1.05,0,2.12.04,3.21.13,1.09.09,2.08.35,2.95.79l-1.84,14.81c-.96-.17-1.97-.35-3.01-.52-1.05-.17-2.41-.26-4.06-.26-2.62,0-4.96.48-7.01,1.44-2.05.96-3.76,2.27-5.11,3.93-1.36,1.66-2.4,3.61-3.15,5.83-.74,2.23-1.11,4.57-1.11,7.01v33.69h-15.47Z"/>
    <path class="st11" d="M620.64-102.08c-7.34,0-13.13-2.05-17.37-6.16-4.24-4.11-6.36-9.87-6.36-17.3v-43.39h15.6v39.33c0,5.24,1.16,8.89,3.47,10.95,2.32,2.05,5.66,3.08,10.03,3.08,2.62,0,4.94-.46,6.95-1.38,2.01-.92,3.69-2.21,5.05-3.87,1.35-1.66,2.38-3.58,3.08-5.77.7-2.18,1.05-4.5,1.05-6.95v-35.39h15.47v65.54h-13.63l-.65-10.62c-2.36,4.37-5.53,7.45-9.51,9.24-3.98,1.79-8.37,2.69-13.17,2.69Z"/>
    <path class="st11" d="M664.82-103.39v-65.54h13.77l.66,10.62c2.53-4.2,5.53-7.23,8.98-9.11,3.45-1.88,7.62-2.82,12.52-2.82s9,1.03,12.85,3.08c3.84,2.05,6.77,5.31,8.78,9.77,2.01-4.37,5.11-7.6,9.31-9.7,4.2-2.1,8.61-3.15,13.24-3.15,7.43,0,13.26,2.14,17.5,6.42,4.24,4.28,6.36,10.14,6.36,17.57v42.87h-15.47v-39.59c0-4.98-1.2-8.52-3.6-10.62-2.41-2.1-5.44-3.15-9.11-3.15-2.62,0-4.92.48-6.88,1.44-1.97.96-3.65,2.25-5.05,3.87-1.4,1.62-2.45,3.52-3.15,5.7-.7,2.19-1.05,4.5-1.05,6.95v35.39h-15.47v-39.59c0-4.98-1.18-8.52-3.54-10.62-2.36-2.1-5.38-3.15-9.05-3.15-2.62,0-4.94.5-6.95,1.51-2.01,1-3.69,2.36-5.05,4.06-1.36,1.7-2.38,3.67-3.08,5.9-.7,2.23-1.05,4.57-1.05,7.01v34.87h-15.47Z"/>
    <path class="st11" d="M811.93-170.23c4.28,0,8.34.81,12.19,2.42,3.84,1.62,7.23,3.89,10.16,6.82,2.93,2.93,5.26,6.49,7.02,10.68,1.75,4.19,2.62,8.87,2.62,14.03s-.85,9.83-2.56,14.03c-1.7,4.2-4.02,7.76-6.95,10.68-2.93,2.93-6.31,5.2-10.16,6.82-3.85,1.62-7.95,2.42-12.32,2.42-5.07,0-9.51-1.09-13.31-3.28-3.8-2.18-6.79-5.11-8.98-8.78l-.52,10.88h-12.72v-92.29h15.47v34.48c2.27-2.8,5.11-4.98,8.52-6.55,3.41-1.57,7.26-2.36,11.54-2.36ZM810.1-157.38c-2.45,0-4.83.44-7.14,1.31-2.32.88-4.37,2.14-6.16,3.8-1.79,1.66-3.26,3.65-4.39,5.96-1.14,2.32-1.84,4.92-2.1,7.8v4.59c.26,2.88.96,5.46,2.1,7.73,1.13,2.27,2.6,4.24,4.39,5.9,1.79,1.66,3.84,2.93,6.16,3.8,2.31.87,4.7,1.31,7.14,1.31s4.92-.5,7.15-1.51c2.23-1,4.19-2.45,5.9-4.33,1.7-1.88,3.06-4.11,4.06-6.69,1-2.58,1.51-5.44,1.51-8.59s-.51-6.01-1.51-8.59c-1.01-2.58-2.36-4.78-4.06-6.62-1.71-1.84-3.67-3.28-5.9-4.33-2.23-1.05-4.61-1.57-7.15-1.57Z"/>
  </g>
  <g>
    <g>
      <path class="st24" d="M879.23,204.15c-4.17.64-8.49.25-12.64-1.38-13.22-5.19-19.42-20.94-13.83-35.19,5.39-13.75,19.83-21.07,32.74-16.87-1.47.06-2.96.25-4.42.6-13.82,3.26-22.22,17.97-18.7,32.84,2.23,9.53,8.8,16.83,16.85,19.99Z"/>
      <path class="st24" d="M923.47,174.26c2.91,21.11-10.63,40.41-30.22,43.1-12.26,1.69-23.95-3.5-31.72-12.8,12.73,5.04,27.26,3.15,37.45-6.17,14.58-13.36,14.73-36.9.34-52.61-1.42-1.58-2.98-3.02-4.63-4.31,14.56,3.28,26.48,16.09,28.78,32.79Z"/>
      <g>
        <path class="st24" d="M896.07,128.46c-.51-.5-1-1-1.5-1.48-.08-.07-.23-.08-.35-.09-2.75-.11-5.5-.22-8.26-.31-.2,0-.34-.07-.48-.22-6.73-6.91-13.46-13.82-20.19-20.73-1.09-1.12-2.46-1.78-3.93-2.24-.85-.27-1.72-.43-2.62-.37-.63.04-1.18.22-1.65.69-.47.48-.57,1.05-.51,1.66.11,1.17.6,2.2,1.36,3.06.88,1,1.84,1.94,2.77,2.9,1.45,1.49,2.91,2.98,4.35,4.48.09.09.16.26.15.39-.04,6.52-.08,13.04-.13,19.55,0,.61.19,1.12.62,1.55.81.8,1.6,1.61,2.39,2.42.13.13.25.11.34,0,.1-.13.19-.28.23-.44.87-3.42,1.73-6.84,2.59-10.25.43-1.7.85-3.4,1.28-5.1.03-.1.06-.2.1-.34.14.14.25.25.36.36,1.33,1.36,2.63,2.76,4.12,3.95,2.02,1.61,4.12,3.1,6.43,4.27.76.38,1.53.75,2.39.85.3.03.65,0,.93-.11,3.16-1.22,6.15-2.77,9.12-4.39.02-.01.04-.03.08-.06Z"/>
        <path class="st24" d="M875.77,113.5c.26.26.49.5.72.73,1.57,1.59,3.14,3.17,4.71,4.76.14.14.26.18.46.14,2.56-.58,5.11-1.15,7.67-1.73.1-.02.21-.05.3-.1.24-.13.32-.41.14-.61-.79-.86-1.56-1.74-2.42-2.53-.29-.27-.81-.41-1.23-.42-3.36-.11-6.72-.17-10.09-.25-.07,0-.14,0-.26,0Z"/>
      </g>
    </g>
    <g>
      <path class="st24" d="M555.71,82.9h45.47l-2.24,8.27c-4.84,3.55-9.03,7.16-12.56,10.82-3.53,3.66-6.61,7.48-9.22,11.47-2.61,3.99-4.82,8.21-6.63,12.66-1.81,4.45-3.41,9.27-4.82,14.46h-13.03c1.24-4.97,2.97-9.8,5.2-14.5,2.23-4.7,4.95-9.23,8.15-13.6,2.7-3.71,5.73-7.17,9.08-10.36,3.35-3.2,7.03-6.13,11.03-8.81h-33.26l2.82-10.41Z"/>
      <path class="st24" d="M609.69,141.56c-2.62,0-5.21-.29-7.76-.86-2.55-.57-4.74-1.52-6.57-2.83-1.83-1.31-3.15-3.03-3.97-5.16-.81-2.13-.8-4.75.04-7.87,2.06-7.59,6.99-12.4,14.81-14.42l.02-.08c-2.29-.82-3.89-2.33-4.79-4.55-.9-2.21-.93-4.88-.09-7.99.76-2.79,1.99-5.18,3.7-7.17,1.72-1.99,3.7-3.63,5.96-4.92,2.26-1.28,4.67-2.21,7.23-2.79,2.56-.57,5.07-.86,7.52-.86s4.79.3,7.01.9c2.21.6,4.1,1.53,5.67,2.79,1.57,1.26,2.68,2.88,3.31,4.88s.57,4.38-.18,7.17c-.86,3.17-2.35,5.84-4.47,8.03-2.12,2.19-4.55,3.69-7.28,4.51l-.02.08c3.34.98,5.62,2.69,6.85,5.12,1.23,2.43,1.33,5.53.3,9.3-.84,3.11-2.25,5.74-4.22,7.87-1.97,2.13-4.22,3.85-6.77,5.16-2.54,1.31-5.24,2.25-8.1,2.83-2.86.57-5.6.86-8.22.86ZM612.34,131.81c1.31,0,2.66-.15,4.06-.45,1.39-.3,2.69-.78,3.91-1.43,1.21-.66,2.3-1.53,3.25-2.62.95-1.09,1.64-2.4,2.05-3.93.73-2.68.32-4.78-1.2-6.31-1.52-1.53-4.01-2.29-7.45-2.29s-6.35.76-8.73,2.29c-2.38,1.53-3.94,3.63-4.66,6.31-.41,1.53-.44,2.83-.07,3.89.37,1.07.98,1.94,1.83,2.62.85.68,1.91,1.18,3.17,1.48,1.26.3,2.54.45,3.85.45ZM619.44,105.59c2.68,0,4.94-.6,6.8-1.8,1.86-1.2,3.09-2.95,3.72-5.24s.35-4.07-.81-5.33c-1.16-1.25-3.11-1.88-5.84-1.88s-5.1.63-6.94,1.88c-1.85,1.26-3.08,3.03-3.7,5.33-.62,2.29-.33,4.04.87,5.24,1.2,1.2,3.17,1.8,5.9,1.8Z"/>
      <path class="st24" d="M651.4,82.9h45.47l-2.24,8.27c-4.84,3.55-9.03,7.16-12.56,10.82-3.53,3.66-6.61,7.48-9.21,11.47-2.61,3.99-4.82,8.21-6.63,12.66-1.81,4.45-3.41,9.27-4.82,14.46h-13.03c1.24-4.97,2.97-9.8,5.2-14.5,2.23-4.7,4.95-9.23,8.15-13.6,2.7-3.71,5.73-7.17,9.08-10.36,3.35-3.2,7.03-6.13,11.03-8.81h-33.26l2.82-10.41Z"/>
    </g>
    <path class="st24" d="M958.08,217.81c-6.55,0-12.45-1.09-17.7-3.28-5.24-2.18-10.32-7.02-13.38-11.57l9.91-7.88c1.84,3.41,4.61,5.93,8.45,7.72,3.84,1.79,8,2.69,12.45,2.69s7.52-.7,9.7-2.1c2.19-1.4,3.28-3.23,3.28-5.51s-1.22-4-3.67-4.92c-2.45-.92-5.73-1.81-9.83-2.69l-6.16-1.44c-3.23-.7-6.14-1.53-8.72-2.49-2.58-.96-4.77-2.16-6.55-3.6-1.79-1.44-3.17-3.17-4.13-5.18-.96-2.01-1.44-4.37-1.44-7.08,0-2.97.63-5.72,1.9-8.26,1.27-2.53,3.1-4.74,5.51-6.62,2.4-1.88,5.39-3.34,8.98-4.39,3.58-1.05,7.73-1.57,12.45-1.57,6.55,0,12.17,1.14,16.84,3.41,4.68,2.27,8.19,5.77,10.56,10.49l-9.79,7.74c-2.04-3.6-3.86-5.38-7.06-6.95-3.19-1.57-6.62-2.36-10.29-2.36-3.93,0-7.06.72-9.37,2.16-2.32,1.44-3.47,3.3-3.47,5.57,0,1.31.39,2.38,1.18,3.21.79.83,1.81,1.55,3.08,2.16,1.27.61,2.73,1.12,4.39,1.51,1.66.39,3.41.77,5.25,1.12l7.21,1.18c2.89.52,5.53,1.24,7.93,2.16,2.4.92,4.48,2.1,6.23,3.54,1.75,1.44,3.1,3.15,4.06,5.11.96,1.97,1.44,4.31,1.44,7.01,0,6.21-2.49,11.27-7.47,15.21-4.98,3.93-12.24,5.9-21.76,5.9Z"/>
    <path class="st24" d="M553.13,216.61v-65.54h13.77l.79,11.8c1.75-4.37,4.37-7.65,7.87-9.83,3.49-2.18,7.56-3.28,12.19-3.28,1.05,0,2.12.04,3.21.13,1.09.09,2.08.35,2.95.79l-1.84,14.81c-.96-.17-1.97-.35-3.01-.52-1.05-.17-2.41-.26-4.06-.26-2.62,0-4.96.48-7.01,1.44-2.05.96-3.76,2.27-5.11,3.93-1.36,1.66-2.4,3.61-3.15,5.83-.74,2.23-1.11,4.57-1.11,7.01v33.69h-15.47Z"/>
    <path class="st24" d="M620.64,217.92c-7.34,0-13.13-2.05-17.37-6.16-4.24-4.11-6.36-9.87-6.36-17.3v-43.39h15.6v39.33c0,5.24,1.16,8.89,3.47,10.95,2.32,2.05,5.66,3.08,10.03,3.08,2.62,0,4.94-.46,6.95-1.38,2.01-.92,3.69-2.21,5.05-3.87,1.35-1.66,2.38-3.58,3.08-5.77.7-2.18,1.05-4.5,1.05-6.95v-35.39h15.47v65.54h-13.63l-.65-10.62c-2.36,4.37-5.53,7.45-9.51,9.24-3.98,1.79-8.37,2.69-13.17,2.69Z"/>
    <path class="st24" d="M664.82,216.61v-65.54h13.77l.66,10.62c2.53-4.2,5.53-7.23,8.98-9.11,3.45-1.88,7.62-2.82,12.52-2.82s9,1.03,12.85,3.08c3.84,2.05,6.77,5.31,8.78,9.77,2.01-4.37,5.11-7.6,9.31-9.7,4.2-2.1,8.61-3.15,13.24-3.15,7.43,0,13.26,2.14,17.5,6.42,4.24,4.28,6.36,10.14,6.36,17.57v42.87h-15.47v-39.59c0-4.98-1.2-8.52-3.6-10.62-2.41-2.1-5.44-3.15-9.11-3.15-2.62,0-4.92.48-6.88,1.44-1.97.96-3.65,2.25-5.05,3.87-1.4,1.62-2.45,3.52-3.15,5.7-.7,2.19-1.05,4.5-1.05,6.95v35.39h-15.47v-39.59c0-4.98-1.18-8.52-3.54-10.62-2.36-2.1-5.38-3.15-9.05-3.15-2.62,0-4.94.5-6.95,1.51-2.01,1-3.69,2.36-5.05,4.06-1.36,1.7-2.38,3.67-3.08,5.9-.7,2.23-1.05,4.57-1.05,7.01v34.87h-15.47Z"/>
    <path class="st24" d="M811.93,149.77c4.28,0,8.34.81,12.19,2.42,3.84,1.62,7.23,3.89,10.16,6.82,2.93,2.93,5.26,6.49,7.02,10.68,1.75,4.19,2.62,8.87,2.62,14.03s-.85,9.83-2.56,14.03c-1.7,4.2-4.02,7.76-6.95,10.68-2.93,2.93-6.31,5.2-10.16,6.82-3.85,1.62-7.95,2.42-12.32,2.42-5.07,0-9.51-1.09-13.31-3.28-3.8-2.18-6.79-5.11-8.98-8.78l-.52,10.88h-12.72v-92.29h15.47v34.48c2.27-2.8,5.11-4.98,8.52-6.55,3.41-1.57,7.26-2.36,11.54-2.36ZM810.1,162.62c-2.45,0-4.83.44-7.14,1.31-2.32.88-4.37,2.14-6.16,3.8-1.79,1.66-3.26,3.65-4.39,5.96-1.14,2.32-1.84,4.92-2.1,7.8v4.59c.26,2.88.96,5.46,2.1,7.73,1.13,2.27,2.6,4.24,4.39,5.9,1.79,1.66,3.84,2.93,6.16,3.8,2.31.87,4.7,1.31,7.14,1.31s4.92-.5,7.15-1.51c2.23-1,4.19-2.45,5.9-4.33,1.7-1.88,3.06-4.11,4.06-6.69,1-2.58,1.51-5.44,1.51-8.59s-.51-6.01-1.51-8.59c-1.01-2.58-2.36-4.78-4.06-6.62-1.71-1.84-3.67-3.28-5.9-4.33-2.23-1.05-4.61-1.57-7.15-1.57Z"/>
  </g>
  <g>
    <g>
      <path class="st21" d="M359.23,204.15c-4.17.64-8.49.25-12.64-1.38-13.22-5.19-19.42-20.94-13.83-35.19,5.39-13.75,19.83-21.07,32.74-16.87-1.47.06-2.96.25-4.42.6-13.82,3.26-22.22,17.97-18.7,32.84,2.23,9.53,8.8,16.83,16.85,19.99Z"/>
      <path class="st21" d="M403.47,174.26c2.91,21.11-10.63,40.41-30.22,43.1-12.26,1.69-23.95-3.5-31.72-12.8,12.73,5.04,27.26,3.15,37.45-6.17,14.58-13.36,14.73-36.9.34-52.61-1.42-1.58-2.98-3.02-4.63-4.31,14.56,3.28,26.48,16.09,28.78,32.79Z"/>
      <g>
        <path class="st21" d="M376.07,128.46c-.51-.5-1-1-1.5-1.48-.08-.07-.23-.08-.35-.09-2.75-.11-5.5-.22-8.26-.31-.2,0-.34-.07-.48-.22-6.73-6.91-13.46-13.82-20.19-20.73-1.09-1.12-2.46-1.78-3.93-2.24-.85-.27-1.72-.43-2.62-.37-.63.04-1.18.22-1.65.69-.47.48-.57,1.05-.51,1.66.11,1.17.6,2.2,1.36,3.06.88,1,1.84,1.94,2.77,2.9,1.45,1.49,2.91,2.98,4.35,4.48.09.09.16.26.15.39-.04,6.52-.08,13.04-.13,19.55,0,.61.19,1.12.62,1.55.81.8,1.6,1.61,2.39,2.42.13.13.25.11.34,0,.1-.13.19-.28.23-.44.87-3.42,1.73-6.84,2.59-10.25.43-1.7.85-3.4,1.28-5.1.03-.1.06-.2.1-.34.14.14.25.25.36.36,1.33,1.36,2.63,2.76,4.12,3.95,2.02,1.61,4.12,3.1,6.43,4.27.76.38,1.53.75,2.39.85.3.03.65,0,.93-.11,3.16-1.22,6.15-2.77,9.12-4.39.02-.01.04-.03.08-.06Z"/>
        <path class="st21" d="M355.77,113.5c.26.26.49.5.72.73,1.57,1.59,3.14,3.17,4.71,4.76.14.14.26.18.46.14,2.56-.58,5.11-1.15,7.67-1.73.1-.02.21-.05.3-.1.24-.13.32-.41.14-.61-.79-.86-1.56-1.74-2.42-2.53-.29-.27-.81-.41-1.23-.42-3.36-.11-6.72-.17-10.09-.25-.07,0-.14,0-.26,0Z"/>
      </g>
    </g>
    <g>
      <path class="st21" d="M35.71,82.9h45.47l-2.24,8.27c-4.84,3.55-9.03,7.16-12.56,10.82-3.53,3.66-6.61,7.48-9.22,11.47-2.61,3.99-4.82,8.21-6.63,12.66-1.81,4.45-3.41,9.27-4.82,14.46h-13.03c1.24-4.97,2.97-9.8,5.2-14.5,2.23-4.7,4.95-9.23,8.15-13.6,2.7-3.71,5.73-7.17,9.08-10.36,3.35-3.2,7.03-6.13,11.03-8.81h-33.26l2.82-10.41Z"/>
      <path class="st21" d="M89.69,141.56c-2.62,0-5.21-.29-7.76-.86-2.55-.57-4.74-1.52-6.57-2.83-1.83-1.31-3.15-3.03-3.97-5.16-.81-2.13-.8-4.75.04-7.87,2.06-7.59,6.99-12.4,14.81-14.42l.02-.08c-2.29-.82-3.89-2.33-4.79-4.55-.9-2.21-.93-4.88-.09-7.99.76-2.79,1.99-5.18,3.7-7.17,1.72-1.99,3.7-3.63,5.96-4.92,2.26-1.28,4.67-2.21,7.23-2.79,2.56-.57,5.07-.86,7.52-.86s4.79.3,7.01.9c2.21.6,4.1,1.53,5.67,2.79,1.57,1.26,2.68,2.88,3.31,4.88s.57,4.38-.18,7.17c-.86,3.17-2.35,5.84-4.47,8.03-2.12,2.19-4.55,3.69-7.28,4.51l-.02.08c3.34.98,5.62,2.69,6.85,5.12,1.23,2.43,1.33,5.53.3,9.3-.84,3.11-2.25,5.74-4.22,7.87-1.97,2.13-4.22,3.85-6.77,5.16-2.54,1.31-5.24,2.25-8.1,2.83-2.86.57-5.6.86-8.22.86ZM92.34,131.81c1.31,0,2.66-.15,4.06-.45,1.39-.3,2.69-.78,3.91-1.43,1.21-.66,2.3-1.53,3.25-2.62.95-1.09,1.64-2.4,2.05-3.93.73-2.68.32-4.78-1.2-6.31-1.52-1.53-4.01-2.29-7.45-2.29s-6.35.76-8.73,2.29c-2.38,1.53-3.94,3.63-4.66,6.31-.41,1.53-.44,2.83-.07,3.89.37,1.07.98,1.94,1.83,2.62.85.68,1.91,1.18,3.17,1.48,1.26.3,2.54.45,3.85.45ZM99.44,105.59c2.68,0,4.94-.6,6.8-1.8,1.86-1.2,3.09-2.95,3.72-5.24.62-2.29.35-4.07-.81-5.33-1.16-1.25-3.11-1.88-5.84-1.88s-5.1.63-6.94,1.88c-1.85,1.26-3.08,3.03-3.7,5.33-.62,2.29-.33,4.04.87,5.24,1.2,1.2,3.17,1.8,5.9,1.8Z"/>
      <path class="st21" d="M131.4,82.9h45.47l-2.24,8.27c-4.84,3.55-9.03,7.16-12.56,10.82-3.53,3.66-6.61,7.48-9.21,11.47-2.61,3.99-4.82,8.21-6.63,12.66-1.81,4.45-3.41,9.27-4.82,14.46h-13.03c1.24-4.97,2.97-9.8,5.2-14.5,2.23-4.7,4.95-9.23,8.15-13.6,2.7-3.71,5.73-7.17,9.08-10.36,3.35-3.2,7.03-6.13,11.03-8.81h-33.26l2.82-10.41Z"/>
    </g>
    <path class="st21" d="M438.08,217.81c-6.55,0-12.45-1.09-17.7-3.28-5.24-2.18-10.32-7.02-13.38-11.57l9.91-7.88c1.84,3.41,4.61,5.93,8.45,7.72,3.84,1.79,8,2.69,12.45,2.69s7.52-.7,9.7-2.1c2.19-1.4,3.28-3.23,3.28-5.51s-1.22-4-3.67-4.92c-2.45-.92-5.73-1.81-9.83-2.69l-6.16-1.44c-3.23-.7-6.14-1.53-8.72-2.49-2.58-.96-4.77-2.16-6.55-3.6-1.79-1.44-3.17-3.17-4.13-5.18-.96-2.01-1.44-4.37-1.44-7.08,0-2.97.63-5.72,1.9-8.26,1.27-2.53,3.1-4.74,5.51-6.62,2.4-1.88,5.39-3.34,8.98-4.39,3.58-1.05,7.73-1.57,12.45-1.57,6.55,0,12.17,1.14,16.84,3.41,4.68,2.27,8.19,5.77,10.56,10.49l-9.79,7.74c-2.04-3.6-3.86-5.38-7.06-6.95-3.19-1.57-6.62-2.36-10.29-2.36-3.93,0-7.06.72-9.37,2.16-2.32,1.44-3.47,3.3-3.47,5.57,0,1.31.39,2.38,1.18,3.21.79.83,1.81,1.55,3.08,2.16,1.27.61,2.73,1.12,4.39,1.51,1.66.39,3.41.77,5.25,1.12l7.21,1.18c2.89.52,5.53,1.24,7.93,2.16,2.4.92,4.48,2.1,6.23,3.54,1.75,1.44,3.1,3.15,4.06,5.11.96,1.97,1.44,4.31,1.44,7.01,0,6.21-2.49,11.27-7.47,15.21-4.98,3.93-12.24,5.9-21.76,5.9Z"/>
    <path class="st21" d="M33.13,216.61v-65.54h13.77l.79,11.8c1.75-4.37,4.37-7.65,7.87-9.83,3.49-2.18,7.56-3.28,12.19-3.28,1.05,0,2.12.04,3.21.13,1.09.09,2.08.35,2.95.79l-1.84,14.81c-.96-.17-1.97-.35-3.01-.52-1.05-.17-2.41-.26-4.06-.26-2.62,0-4.96.48-7.01,1.44-2.05.96-3.76,2.27-5.11,3.93-1.36,1.66-2.4,3.61-3.15,5.83-.74,2.23-1.11,4.57-1.11,7.01v33.69h-15.47Z"/>
    <path class="st21" d="M100.64,217.92c-7.34,0-13.13-2.05-17.37-6.16-4.24-4.11-6.36-9.87-6.36-17.3v-43.39h15.6v39.33c0,5.24,1.16,8.89,3.47,10.95,2.32,2.05,5.66,3.08,10.03,3.08,2.62,0,4.94-.46,6.95-1.38,2.01-.92,3.69-2.21,5.05-3.87,1.35-1.66,2.38-3.58,3.08-5.77.7-2.18,1.05-4.5,1.05-6.95v-35.39h15.47v65.54h-13.63l-.65-10.62c-2.36,4.37-5.53,7.45-9.51,9.24-3.98,1.79-8.37,2.69-13.17,2.69Z"/>
    <path class="st21" d="M144.82,216.61v-65.54h13.77l.66,10.62c2.53-4.2,5.53-7.23,8.98-9.11,3.45-1.88,7.62-2.82,12.52-2.82s9,1.03,12.85,3.08c3.84,2.05,6.77,5.31,8.78,9.77,2.01-4.37,5.11-7.6,9.31-9.7,4.2-2.1,8.61-3.15,13.24-3.15,7.43,0,13.26,2.14,17.5,6.42,4.24,4.28,6.36,10.14,6.36,17.57v42.87h-15.47v-39.59c0-4.98-1.2-8.52-3.6-10.62-2.41-2.1-5.44-3.15-9.11-3.15-2.62,0-4.92.48-6.88,1.44-1.97.96-3.65,2.25-5.05,3.87-1.4,1.62-2.45,3.52-3.15,5.7-.7,2.19-1.05,4.5-1.05,6.95v35.39h-15.47v-39.59c0-4.98-1.18-8.52-3.54-10.62-2.36-2.1-5.38-3.15-9.05-3.15-2.62,0-4.94.5-6.95,1.51-2.01,1-3.69,2.36-5.05,4.06-1.36,1.7-2.38,3.67-3.08,5.9-.7,2.23-1.05,4.57-1.05,7.01v34.87h-15.47Z"/>
    <path class="st21" d="M291.93,149.77c4.28,0,8.34.81,12.19,2.42,3.84,1.62,7.23,3.89,10.16,6.82,2.93,2.93,5.26,6.49,7.02,10.68,1.75,4.19,2.62,8.87,2.62,14.03s-.85,9.83-2.56,14.03c-1.7,4.2-4.02,7.76-6.95,10.68-2.93,2.93-6.31,5.2-10.16,6.82-3.85,1.62-7.95,2.42-12.32,2.42-5.07,0-9.51-1.09-13.31-3.28-3.8-2.18-6.79-5.11-8.98-8.78l-.52,10.88h-12.72v-92.29h15.47v34.48c2.27-2.8,5.11-4.98,8.52-6.55,3.41-1.57,7.26-2.36,11.54-2.36ZM290.1,162.62c-2.45,0-4.83.44-7.14,1.31-2.32.88-4.37,2.14-6.16,3.8-1.79,1.66-3.26,3.65-4.39,5.96-1.14,2.32-1.84,4.92-2.1,7.8v4.59c.26,2.88.96,5.46,2.1,7.73,1.13,2.27,2.6,4.24,4.39,5.9,1.79,1.66,3.84,2.93,6.16,3.8,2.31.87,4.7,1.31,7.14,1.31s4.92-.5,7.15-1.51c2.23-1,4.19-2.45,5.9-4.33,1.7-1.88,3.06-4.11,4.06-6.69,1-2.58,1.51-5.44,1.51-8.59s-.51-6.01-1.51-8.59c-1.01-2.58-2.36-4.78-4.06-6.62-1.71-1.84-3.67-3.28-5.9-4.33-2.23-1.05-4.61-1.57-7.15-1.57Z"/>
  </g>
  <g>
    <g>
      <path class="st25" d="M1399.23,204.15c-4.17.64-8.49.25-12.64-1.38-13.22-5.19-19.42-20.94-13.83-35.19,5.39-13.75,19.83-21.07,32.74-16.87-1.47.06-2.96.25-4.42.6-13.82,3.26-22.22,17.97-18.7,32.84,2.23,9.53,8.8,16.83,16.85,19.99Z"/>
      <path class="st17" d="M1443.47,174.26c2.91,21.11-10.63,40.41-30.22,43.1-12.26,1.69-23.95-3.5-31.72-12.8,12.73,5.04,27.26,3.15,37.45-6.17,14.58-13.36,14.73-36.9.34-52.61-1.42-1.58-2.98-3.02-4.63-4.31,14.56,3.28,26.48,16.09,28.78,32.79Z"/>
      <g>
        <path class="st12" d="M1416.07,128.46c-.51-.5-1-1-1.5-1.48-.08-.07-.23-.08-.35-.09-2.75-.11-5.5-.22-8.26-.31-.2,0-.34-.07-.48-.22-6.73-6.91-13.46-13.82-20.19-20.73-1.09-1.12-2.46-1.78-3.93-2.24-.85-.27-1.72-.43-2.62-.37-.63.04-1.18.22-1.65.69-.47.48-.57,1.05-.51,1.66.11,1.17.6,2.2,1.36,3.06.88,1,1.84,1.94,2.77,2.9,1.45,1.49,2.91,2.98,4.35,4.48.09.09.16.26.15.39-.04,6.52-.08,13.04-.13,19.55,0,.61.19,1.12.62,1.55.81.8,1.6,1.61,2.39,2.42.13.13.25.11.34,0,.1-.13.19-.28.23-.44.87-3.42,1.73-6.84,2.59-10.25.43-1.7.85-3.4,1.28-5.1.03-.1.06-.2.1-.34.14.14.25.25.36.36,1.33,1.36,2.63,2.76,4.12,3.95,2.02,1.61,4.12,3.1,6.43,4.27.76.38,1.53.75,2.39.85.3.03.65,0,.93-.11,3.16-1.22,6.15-2.77,9.12-4.39.02-.01.04-.03.08-.06Z"/>
        <path class="st3" d="M1395.77,113.5c.26.26.49.5.72.73,1.57,1.59,3.14,3.17,4.71,4.76.14.14.26.18.46.14,2.56-.58,5.11-1.15,7.67-1.73.1-.02.21-.05.3-.1.24-.13.32-.41.14-.61-.79-.86-1.56-1.74-2.42-2.53-.29-.27-.81-.41-1.23-.42-3.36-.11-6.72-.17-10.09-.25-.07,0-.14,0-.26,0Z"/>
      </g>
    </g>
    <g>
      <path class="st5" d="M1075.71,82.9h45.47l-2.24,8.27c-4.84,3.55-9.03,7.16-12.56,10.82-3.53,3.66-6.61,7.48-9.22,11.47-2.61,3.99-4.82,8.21-6.63,12.66-1.81,4.45-3.41,9.27-4.82,14.46h-13.03c1.24-4.97,2.97-9.8,5.2-14.5,2.23-4.7,4.95-9.23,8.15-13.6,2.7-3.71,5.73-7.17,9.08-10.36,3.35-3.2,7.03-6.13,11.03-8.81h-33.26l2.82-10.41Z"/>
      <path class="st26" d="M1129.69,141.56c-2.62,0-5.21-.29-7.76-.86-2.55-.57-4.74-1.52-6.57-2.83-1.83-1.31-3.15-3.03-3.97-5.16-.81-2.13-.8-4.75.04-7.87,2.06-7.59,6.99-12.4,14.81-14.42l.02-.08c-2.29-.82-3.89-2.33-4.79-4.55-.9-2.21-.93-4.88-.09-7.99.76-2.79,1.99-5.18,3.7-7.17,1.72-1.99,3.7-3.63,5.96-4.92,2.26-1.28,4.67-2.21,7.23-2.79,2.56-.57,5.07-.86,7.52-.86s4.79.3,7.01.9c2.21.6,4.1,1.53,5.67,2.79,1.57,1.26,2.68,2.88,3.31,4.88s.57,4.38-.18,7.17c-.86,3.17-2.35,5.84-4.47,8.03-2.12,2.19-4.55,3.69-7.28,4.51l-.02.08c3.34.98,5.62,2.69,6.85,5.12,1.23,2.43,1.33,5.53.3,9.3-.84,3.11-2.25,5.74-4.22,7.87-1.97,2.13-4.22,3.85-6.77,5.16-2.54,1.31-5.24,2.25-8.1,2.83-2.86.57-5.6.86-8.22.86ZM1132.34,131.81c1.31,0,2.66-.15,4.06-.45,1.39-.3,2.69-.78,3.91-1.43,1.21-.66,2.3-1.53,3.25-2.62.95-1.09,1.64-2.4,2.05-3.93.73-2.68.32-4.78-1.2-6.31-1.52-1.53-4.01-2.29-7.45-2.29s-6.35.76-8.73,2.29c-2.38,1.53-3.94,3.63-4.66,6.31-.41,1.53-.44,2.83-.07,3.89.37,1.07.98,1.94,1.83,2.62.85.68,1.91,1.18,3.17,1.48,1.26.3,2.54.45,3.85.45ZM1139.44,105.59c2.68,0,4.94-.6,6.8-1.8,1.86-1.2,3.09-2.95,3.72-5.24.62-2.29.35-4.07-.81-5.33-1.16-1.25-3.11-1.88-5.84-1.88s-5.1.63-6.94,1.88c-1.85,1.26-3.08,3.03-3.7,5.33-.62,2.29-.33,4.04.87,5.24,1.2,1.2,3.17,1.8,5.9,1.8Z"/>
      <path class="st10" d="M1171.4,82.9h45.47l-2.24,8.27c-4.84,3.55-9.03,7.16-12.56,10.82-3.53,3.66-6.61,7.48-9.21,11.47-2.61,3.99-4.82,8.21-6.63,12.66-1.81,4.45-3.41,9.27-4.82,14.46h-13.03c1.24-4.97,2.97-9.8,5.2-14.5,2.23-4.7,4.95-9.23,8.15-13.6,2.7-3.71,5.73-7.17,9.08-10.36,3.35-3.2,7.03-6.13,11.03-8.81h-33.26l2.82-10.41Z"/>
    </g>
    <path class="st4" d="M1478.08,217.81c-6.55,0-12.45-1.09-17.7-3.28-5.24-2.18-10.32-7.02-13.38-11.57l9.91-7.88c1.84,3.41,4.61,5.93,8.45,7.72,3.84,1.79,8,2.69,12.45,2.69s7.52-.7,9.7-2.1c2.19-1.4,3.28-3.23,3.28-5.51s-1.22-4-3.67-4.92c-2.45-.92-5.73-1.81-9.83-2.69l-6.16-1.44c-3.23-.7-6.14-1.53-8.72-2.49-2.58-.96-4.77-2.16-6.55-3.6-1.79-1.44-3.17-3.17-4.13-5.18-.96-2.01-1.44-4.37-1.44-7.08,0-2.97.63-5.72,1.9-8.26,1.27-2.53,3.1-4.74,5.51-6.62,2.4-1.88,5.39-3.34,8.98-4.39,3.58-1.05,7.73-1.57,12.45-1.57,6.55,0,12.17,1.14,16.84,3.41,4.68,2.27,8.19,5.77,10.56,10.49l-9.79,7.74c-2.04-3.6-3.86-5.38-7.06-6.95-3.19-1.57-6.62-2.36-10.29-2.36-3.93,0-7.06.72-9.37,2.16-2.32,1.44-3.47,3.3-3.47,5.57,0,1.31.39,2.38,1.18,3.21.79.83,1.81,1.55,3.08,2.16,1.27.61,2.73,1.12,4.39,1.51,1.66.39,3.41.77,5.25,1.12l7.21,1.18c2.89.52,5.53,1.24,7.93,2.16,2.4.92,4.48,2.1,6.23,3.54,1.75,1.44,3.1,3.15,4.06,5.11.96,1.97,1.44,4.31,1.44,7.01,0,6.21-2.49,11.27-7.47,15.21-4.98,3.93-12.24,5.9-21.76,5.9Z"/>
    <path class="st9" d="M1073.13,216.61v-65.54h13.77l.79,11.8c1.75-4.37,4.37-7.65,7.87-9.83,3.49-2.18,7.56-3.28,12.19-3.28,1.05,0,2.12.04,3.21.13,1.09.09,2.08.35,2.95.79l-1.84,14.81c-.96-.17-1.97-.35-3.01-.52-1.05-.17-2.41-.26-4.06-.26-2.62,0-4.96.48-7.01,1.44-2.05.96-3.76,2.27-5.11,3.93-1.36,1.66-2.4,3.61-3.15,5.83-.74,2.23-1.11,4.57-1.11,7.01v33.69h-15.47Z"/>
    <path class="st23" d="M1140.64,217.92c-7.34,0-13.13-2.05-17.37-6.16-4.24-4.11-6.36-9.87-6.36-17.3v-43.39h15.6v39.33c0,5.24,1.16,8.89,3.47,10.95,2.32,2.05,5.66,3.08,10.03,3.08,2.62,0,4.94-.46,6.95-1.38,2.01-.92,3.69-2.21,5.05-3.87,1.35-1.66,2.38-3.58,3.08-5.77.7-2.18,1.05-4.5,1.05-6.95v-35.39h15.47v65.54h-13.63l-.65-10.62c-2.36,4.37-5.53,7.45-9.51,9.24-3.98,1.79-8.37,2.69-13.17,2.69Z"/>
    <path class="st1" d="M1184.82,216.61v-65.54h13.77l.66,10.62c2.53-4.2,5.53-7.23,8.98-9.11,3.45-1.88,7.62-2.82,12.52-2.82s9,1.03,12.85,3.08c3.84,2.05,6.77,5.31,8.78,9.77,2.01-4.37,5.11-7.6,9.31-9.7,4.2-2.1,8.61-3.15,13.24-3.15,7.43,0,13.26,2.14,17.5,6.42,4.24,4.28,6.36,10.14,6.36,17.57v42.87h-15.47v-39.59c0-4.98-1.2-8.52-3.6-10.62-2.41-2.1-5.44-3.15-9.11-3.15-2.62,0-4.92.48-6.88,1.44-1.97.96-3.65,2.25-5.05,3.87-1.4,1.62-2.45,3.52-3.15,5.7-.7,2.19-1.05,4.5-1.05,6.95v35.39h-15.47v-39.59c0-4.98-1.18-8.52-3.54-10.62-2.36-2.1-5.38-3.15-9.05-3.15-2.62,0-4.94.5-6.95,1.51-2.01,1-3.69,2.36-5.05,4.06-1.36,1.7-2.38,3.67-3.08,5.9-.7,2.23-1.05,4.57-1.05,7.01v34.87h-15.47Z"/>
    <path class="st28" d="M1331.93,149.77c4.28,0,8.34.81,12.19,2.42,3.84,1.62,7.23,3.89,10.16,6.82,2.93,2.93,5.26,6.49,7.02,10.68,1.75,4.19,2.62,8.87,2.62,14.03s-.85,9.83-2.56,14.03c-1.7,4.2-4.02,7.76-6.95,10.68-2.93,2.93-6.31,5.2-10.16,6.82-3.85,1.62-7.95,2.42-12.32,2.42-5.07,0-9.51-1.09-13.31-3.28-3.8-2.18-6.79-5.11-8.98-8.78l-.52,10.88h-12.72v-92.29h15.47v34.48c2.27-2.8,5.11-4.98,8.52-6.55,3.41-1.57,7.26-2.36,11.54-2.36ZM1330.1,162.62c-2.45,0-4.83.44-7.14,1.31-2.32.88-4.37,2.14-6.16,3.8-1.79,1.66-3.26,3.65-4.39,5.96-1.14,2.32-1.84,4.92-2.1,7.8v4.59c.26,2.88.96,5.46,2.1,7.73,1.13,2.27,2.6,4.24,4.39,5.9,1.79,1.66,3.84,2.93,6.16,3.8,2.31.87,4.7,1.31,7.14,1.31s4.92-.5,7.15-1.51c2.23-1,4.19-2.45,5.9-4.33,1.7-1.88,3.06-4.11,4.06-6.69,1-2.58,1.51-5.44,1.51-8.59s-.51-6.01-1.51-8.59c-1.01-2.58-2.36-4.78-4.06-6.62-1.71-1.84-3.67-3.28-5.9-4.33-2.23-1.05-4.61-1.57-7.15-1.57Z"/>
  </g>
</svg>